<mxfile host="Electron" modified="2024-08-11T04:34:25.748Z" agent="Mozilla/5.0 (Macintosh; Intel Mac OS X 10_15_7) AppleWebKit/537.36 (KHTML, like Gecko) draw.io/21.2.8 Chrome/112.0.5615.165 Electron/24.2.0 Safari/537.36" etag="EZReYZ_TPre2-MVEenkF" version="21.2.8" type="device" pages="5">
  <diagram name="Overview" id="PP5KZXzvjLcYf0WZMmO8">
    <mxGraphModel dx="1026" dy="772" grid="1" gridSize="10" guides="1" tooltips="1" connect="1" arrows="1" fold="1" page="1" pageScale="1" pageWidth="1169" pageHeight="827" math="0" shadow="0">
      <root>
        <mxCell id="0" />
        <mxCell id="1" parent="0" />
        <mxCell id="zT6JNl-cOwjEbxEy0BAq-17" value="" style="rounded=1;whiteSpace=wrap;html=1;fillColor=none;dashed=1;" parent="1" vertex="1">
          <mxGeometry x="670" y="145" width="220" height="215" as="geometry" />
        </mxCell>
        <mxCell id="zT6JNl-cOwjEbxEy0BAq-21" value="" style="rounded=1;whiteSpace=wrap;html=1;fillColor=none;dashed=1;" parent="1" vertex="1">
          <mxGeometry x="485" y="115" width="570" height="300" as="geometry" />
        </mxCell>
        <mxCell id="zT6JNl-cOwjEbxEy0BAq-19" style="edgeStyle=orthogonalEdgeStyle;orthogonalLoop=1;jettySize=auto;html=1;exitX=1;exitY=0.5;exitDx=0;exitDy=0;exitPerimeter=0;startArrow=classic;startFill=1;rounded=1;" parent="1" source="zT6JNl-cOwjEbxEy0BAq-1" target="zT6JNl-cOwjEbxEy0BAq-17" edge="1">
          <mxGeometry relative="1" as="geometry" />
        </mxCell>
        <mxCell id="zT6JNl-cOwjEbxEy0BAq-1" value="" style="sketch=0;points=[[0,0,0],[0.25,0,0],[0.5,0,0],[0.75,0,0],[1,0,0],[0,1,0],[0.25,1,0],[0.5,1,0],[0.75,1,0],[1,1,0],[0,0.25,0],[0,0.5,0],[0,0.75,0],[1,0.25,0],[1,0.5,0],[1,0.75,0]];outlineConnect=0;fontColor=#232F3E;gradientColor=#4D72F3;gradientDirection=north;fillColor=#3334B9;strokeColor=#ffffff;dashed=0;verticalLabelPosition=bottom;verticalAlign=top;align=center;html=1;fontSize=12;fontStyle=0;aspect=fixed;shape=mxgraph.aws4.resourceIcon;resIcon=mxgraph.aws4.rds;" parent="1" vertex="1">
          <mxGeometry x="520" y="122.5" width="80" height="80" as="geometry" />
        </mxCell>
        <mxCell id="zT6JNl-cOwjEbxEy0BAq-18" style="edgeStyle=orthogonalEdgeStyle;orthogonalLoop=1;jettySize=auto;html=1;startArrow=classic;startFill=1;strokeColor=default;rounded=1;" parent="1" source="zT6JNl-cOwjEbxEy0BAq-2" target="zT6JNl-cOwjEbxEy0BAq-17" edge="1">
          <mxGeometry relative="1" as="geometry" />
        </mxCell>
        <mxCell id="zT6JNl-cOwjEbxEy0BAq-2" value="" style="sketch=0;points=[[0,0,0],[0.25,0,0],[0.5,0,0],[0.75,0,0],[1,0,0],[0,1,0],[0.25,1,0],[0.5,1,0],[0.75,1,0],[1,1,0],[0,0.25,0],[0,0.5,0],[0,0.75,0],[1,0.25,0],[1,0.5,0],[1,0.75,0]];outlineConnect=0;fontColor=#232F3E;gradientColor=#60A337;gradientDirection=north;fillColor=#277116;strokeColor=#ffffff;dashed=0;verticalLabelPosition=bottom;verticalAlign=top;align=center;html=1;fontSize=12;fontStyle=0;aspect=fixed;shape=mxgraph.aws4.resourceIcon;resIcon=mxgraph.aws4.s3;" parent="1" vertex="1">
          <mxGeometry x="520" y="292.5" width="80" height="80" as="geometry" />
        </mxCell>
        <mxCell id="WfNUCXWtIGb2go1Pgv4c-13" style="edgeStyle=orthogonalEdgeStyle;rounded=1;orthogonalLoop=1;jettySize=auto;html=1;startArrow=classic;startFill=1;" edge="1" parent="1" source="zT6JNl-cOwjEbxEy0BAq-7" target="WfNUCXWtIGb2go1Pgv4c-1">
          <mxGeometry relative="1" as="geometry" />
        </mxCell>
        <mxCell id="WfNUCXWtIGb2go1Pgv4c-14" style="edgeStyle=orthogonalEdgeStyle;rounded=1;orthogonalLoop=1;jettySize=auto;html=1;entryX=-0.006;entryY=0.65;entryDx=0;entryDy=0;entryPerimeter=0;startArrow=classic;startFill=1;" edge="1" parent="1" source="zT6JNl-cOwjEbxEy0BAq-7" target="WfNUCXWtIGb2go1Pgv4c-11">
          <mxGeometry relative="1" as="geometry" />
        </mxCell>
        <mxCell id="zT6JNl-cOwjEbxEy0BAq-7" value="" style="sketch=0;points=[[0,0,0],[0.25,0,0],[0.5,0,0],[0.75,0,0],[1,0,0],[0,1,0],[0.25,1,0],[0.5,1,0],[0.75,1,0],[1,1,0],[0,0.25,0],[0,0.5,0],[0,0.75,0],[1,0.25,0],[1,0.5,0],[1,0.75,0]];outlineConnect=0;fontColor=#232F3E;gradientColor=#F78E04;gradientDirection=north;fillColor=#D05C17;strokeColor=#ffffff;dashed=0;verticalLabelPosition=bottom;verticalAlign=top;align=center;html=1;fontSize=12;fontStyle=0;aspect=fixed;shape=mxgraph.aws4.resourceIcon;resIcon=mxgraph.aws4.elastic_load_balancing;" parent="1" vertex="1">
          <mxGeometry x="960" y="212.5" width="80" height="80" as="geometry" />
        </mxCell>
        <mxCell id="zT6JNl-cOwjEbxEy0BAq-9" value="&lt;b&gt;Artifact Store&lt;br&gt;(S3)&lt;br&gt;&lt;/b&gt;" style="text;html=1;align=center;verticalAlign=middle;resizable=0;points=[];autosize=1;strokeColor=none;fillColor=none;" parent="1" vertex="1">
          <mxGeometry x="510" y="372.5" width="100" height="40" as="geometry" />
        </mxCell>
        <mxCell id="zT6JNl-cOwjEbxEy0BAq-10" value="&lt;b&gt;Customer Data and&lt;br&gt;Transactions&lt;br&gt;(Postgres RDS)&lt;br&gt;&lt;/b&gt;" style="text;html=1;align=center;verticalAlign=middle;resizable=0;points=[];autosize=1;strokeColor=none;fillColor=none;" parent="1" vertex="1">
          <mxGeometry x="495" y="202.5" width="130" height="60" as="geometry" />
        </mxCell>
        <mxCell id="zT6JNl-cOwjEbxEy0BAq-11" value="&lt;b&gt;Scaled Backend Services (Golang)&lt;br&gt;(ECS Maintained)&lt;br&gt;&lt;/b&gt;" style="text;html=1;align=center;verticalAlign=middle;resizable=0;points=[];autosize=1;strokeColor=none;fillColor=none;" parent="1" vertex="1">
          <mxGeometry x="670" y="360" width="220" height="40" as="geometry" />
        </mxCell>
        <mxCell id="zT6JNl-cOwjEbxEy0BAq-13" value="&lt;b&gt;Load Balancer&lt;br&gt;(ELB)&lt;br&gt;&lt;/b&gt;" style="text;html=1;align=center;verticalAlign=middle;resizable=0;points=[];autosize=1;strokeColor=none;fillColor=none;" parent="1" vertex="1">
          <mxGeometry x="945" y="292.5" width="110" height="40" as="geometry" />
        </mxCell>
        <mxCell id="zT6JNl-cOwjEbxEy0BAq-14" value="" style="sketch=0;points=[[0,0,0],[0.25,0,0],[0.5,0,0],[0.75,0,0],[1,0,0],[0,1,0],[0.25,1,0],[0.5,1,0],[0.75,1,0],[1,1,0],[0,0.25,0],[0,0.5,0],[0,0.75,0],[1,0.25,0],[1,0.5,0],[1,0.75,0]];outlineConnect=0;fontColor=#232F3E;gradientColor=#F78E04;gradientDirection=north;fillColor=#D05C17;strokeColor=#ffffff;dashed=0;verticalLabelPosition=bottom;verticalAlign=top;align=center;html=1;fontSize=12;fontStyle=0;aspect=fixed;shape=mxgraph.aws4.resourceIcon;resIcon=mxgraph.aws4.ec2;" parent="1" vertex="1">
          <mxGeometry x="680" y="160" width="80" height="80" as="geometry" />
        </mxCell>
        <mxCell id="zT6JNl-cOwjEbxEy0BAq-15" value="" style="sketch=0;points=[[0,0,0],[0.25,0,0],[0.5,0,0],[0.75,0,0],[1,0,0],[0,1,0],[0.25,1,0],[0.5,1,0],[0.75,1,0],[1,1,0],[0,0.25,0],[0,0.5,0],[0,0.75,0],[1,0.25,0],[1,0.5,0],[1,0.75,0]];outlineConnect=0;fontColor=#232F3E;gradientColor=#F78E04;gradientDirection=north;fillColor=#D05C17;strokeColor=#ffffff;dashed=0;verticalLabelPosition=bottom;verticalAlign=top;align=center;html=1;fontSize=12;fontStyle=0;aspect=fixed;shape=mxgraph.aws4.resourceIcon;resIcon=mxgraph.aws4.ec2;" parent="1" vertex="1">
          <mxGeometry x="800" y="160" width="80" height="80" as="geometry" />
        </mxCell>
        <mxCell id="zT6JNl-cOwjEbxEy0BAq-16" value="" style="sketch=0;points=[[0,0,0],[0.25,0,0],[0.5,0,0],[0.75,0,0],[1,0,0],[0,1,0],[0.25,1,0],[0.5,1,0],[0.75,1,0],[1,1,0],[0,0.25,0],[0,0.5,0],[0,0.75,0],[1,0.25,0],[1,0.5,0],[1,0.75,0]];outlineConnect=0;fontColor=#232F3E;gradientColor=#F78E04;gradientDirection=north;fillColor=#D05C17;strokeColor=#ffffff;dashed=0;verticalLabelPosition=bottom;verticalAlign=top;align=center;html=1;fontSize=12;fontStyle=0;aspect=fixed;shape=mxgraph.aws4.resourceIcon;resIcon=mxgraph.aws4.ec2;" parent="1" vertex="1">
          <mxGeometry x="740" y="270" width="80" height="80" as="geometry" />
        </mxCell>
        <mxCell id="zT6JNl-cOwjEbxEy0BAq-20" style="edgeStyle=orthogonalEdgeStyle;rounded=0;orthogonalLoop=1;jettySize=auto;html=1;startArrow=classic;startFill=1;" parent="1" source="zT6JNl-cOwjEbxEy0BAq-17" target="zT6JNl-cOwjEbxEy0BAq-7" edge="1">
          <mxGeometry relative="1" as="geometry" />
        </mxCell>
        <mxCell id="zT6JNl-cOwjEbxEy0BAq-24" value="&lt;b&gt;AWS Virtual Private Cloud&lt;br&gt;&lt;/b&gt;" style="text;html=1;align=center;verticalAlign=middle;resizable=0;points=[];autosize=1;strokeColor=none;fillColor=none;" parent="1" vertex="1">
          <mxGeometry x="820" y="415" width="170" height="30" as="geometry" />
        </mxCell>
        <mxCell id="6C6hWGRwqsDQPJWB_Uks-2" value="&lt;b&gt;Rest APIs&lt;br&gt;to Frontend&lt;br&gt;(SSL/TLS)&lt;br&gt;&lt;/b&gt;" style="text;html=1;align=center;verticalAlign=middle;resizable=0;points=[];autosize=1;strokeColor=none;fillColor=none;" parent="1" vertex="1">
          <mxGeometry x="1110" y="235" width="90" height="60" as="geometry" />
        </mxCell>
        <mxCell id="WfNUCXWtIGb2go1Pgv4c-1" value="" style="shape=image;verticalLabelPosition=bottom;labelBackgroundColor=default;verticalAlign=top;aspect=fixed;imageAspect=0;image=data:image/png,iVBORw0KGgoAAAANSUhEUgAAAgAAAAIACAYAAAD0eNT6AAAABHNCSVQICAgIfAhkiAAAAAlwSFlzAAALEwAACxMBAJqcGAAAABl0RVh0U29mdHdhcmUAd3d3Lmlua3NjYXBlLm9yZ5vuPBoAABZsSURBVHic7d17kKV1fefx7+95zunbzDAzDsNFHAN4CSIxrLHKiDKSS3nJbiQRhircmMpedKs0VkKWbICKpiNqbaJCgooCEk3tH5sNm6qNG1hHjc6qWbTiLYIMKGA7DAtzYW7QTU93n/PsHy4WEAenZ7rP093f1+uvoS/n+RTMw3nP02eeEwEAAAAAAAAAAAAAAAAAAAAAAAAAAAAAAAAAAAAAAAAAAAAAAAAAAAAAAAAAAAAAAAAAAAAAAAAAAAAAAAAAAAAAAAAAAAAAAAAAAAAAAAAAAAAAAAAAAAAAAAAAAAAAAAAAAAAAAAAAAAAAAAAAAAAAAAAAAAAAAADQgtL2AJa3N1/+/lVTQ1OvKv3qpVHipyPirIiyMaJZHxGrImKo5YnwFLsn7mp7AjxFKSWilKaq6rko5XBdD+0qVXVfXVXbpkvvpm033rh3UY67GA/KynbpVe89eSb6byoRb4wmXh4R3bY3wdESACwnpZSoh0YOdrpDn+9V3T/8+xs+tGC/gQUAR+2Nf/CezXXpX96U8vqI6LS9B46FAGC5KlGiMzL6cLczevWnb/rw9cf/ePATXHzF1RdEiXdHxPltb4HjJQBYCbpDIwfqkVXv+swNH/7QsT6GAOCItvz++Cn9Tv2nJeI3wu8VVggBwErSHRnbOTK86vW3fuy6O+f7vdViDGL523Ll1Rc3nXp7iXhzePIHWJJmp6ee89ijj3z7tW95+3+e7/f6HztP8fp3XDe8as2ha6Jp3tb2FlgMrgCwMpUYHlv1rdnh7vnbrr/+saP5DlcA+JEt4+OrV60++ClP/gDLTROHpx47t5qc3vGvLrvstKP5DgFARERsufJ9G5vD9baIeE3bWwA4NnMzj6+femT/Pb/ylre/8Cd9rQAg3vCf/mRNE73/FRE/1/YWAI7P3OzhVdMzk9/4lbf9/inP9HUCILnXv+O64aF65n+EJ3+AFWNu5vCqw5N773zN5ZevOtLXCIDkVq05dE1E/GLbOwBYWLMz0xviwKEvHunz9SDHsLRsufLqiyPi/W3vgEGaPLCn7QkwMHOzs6ee9YrNo/d94x8/9/TP+WuASb3xqveeWjX9uyJiXdtbYJD8NUCyqaq6qVevP+fp7yPgRwBJlab/gfDkD7Di9fu9UmamP/X0jwuAhC6+4uoLSsSb2t4BwGDMTE8+77Vvffvbn/wxAZDRD9/YB4A0mpg9/PjVT/6IAEjmjX/wns3hXf0A0pmbeXz9697y2z+606sASKYu/cvb3gBAO2Znp975xK8FQCK/fvn4SU0pr2t7BwDtmDs8fcrr/8M7zo4QAKl0up3fiIhu2zsAaEcTTfT6s38cIQBSaUrz621vAKBdc7MzvxzhRkBp/Or4+Njw4Xp/RAy1vQXa5EZApFeq6K5fd6IrAEkMzZTzw5M/AE0/OrPl3wmAJEpTe7c/ACIioml6FwiALJrmp9ueAMDS0O/NPV8AJFEiXtj2BgCWhn5v7hQBkERT4tS2NwCwNDT93ogAyGNN2wMAWBr6Tb8WAHmsbnsAAEtD0+9XnaP5wi1bttS7ut1XNk1zYWma86KUMyNifbir3FHbMzHR9oRW/MNrf7vtCfAUc9871PYEeIoXff6KwR+0aeIZA+AVW7aMdjud39kV8XvRNBtLRERx7yAAWO6OGACbL730koi4JiJOG9wcAGAQftxrAMrmN71pPCL+Kjz5A8CK9NQrAOPj1eZ77vmv0TSXtLQHABiAp1wB2HzPPe+NCE/+ALDC/SgA/v/P/Ft4KSIAMGhVxA9f7R8RH2h5CwAwIFVERKfT+d2I2NTyFgBgQKotW7bUJeKytocAAINTPdzpvCoiNrY9BAAYnKoq5cK2RwAAg1U1TXNe2yMAgMGqIuLMtkcAAINVRcTatkcAAINVRcRQ2yMAgMH6cW8GBACscAIAABISAACQkAAAgIQEAAAkJAAAICEBAAAJCQAASEgAAEBCAgAAEhIAAJCQAACAhAQAACQkAAAgIQEAAAkJAABISAAAQEICAAASEgAAkJAAAICEBAAAJCQAACAhAQAACQkAAEhIAABAQgIAABISAACQkAAAgIQEAAAkJAAAICEBAAAJCQAASEgAAEBCAgAAEhIAAJCQAACAhAQAACQkAAAgIQEAAAkJAABISAAAQEICAAASEgAAkJAAAICEBAAAJCQAACAhAQAACQkAAEhIAABAQgIAABISAACQkAAAgIQEAAAkJAAAICEBAAAJCQAASEgAAEBCAgAAEhIAAJBQ56TTz257AwAwYK4AAEBCAgAAEhIAAJCQAACAhAQAACQkAAAgIQEAAAkJAABISAAAQEICAAASEgAAkJAAAICEBAAAJCQAACAhAQAACQkAAEhIAABAQgIAABISAACQkAAAgIQEAAAkJAAAICEBAAAJCQAASEgAAEBCAgAAEhIAAJCQAACAhAQAACQkAAAgIQEAAAkJAABISAAAQEICAAASEgAAkJAAAICEBAAAJCQAACAhAQAACQkAAEhIAABAQgIAABISAACQkAAAgIQEAAAkJAAAICEBAAAJCQAASEgAAEBCAgAAEhIAAJCQAACAhAQAACQkAAAgIQEAAAkJAABISAAAQEICAAASEgAAkFBn98RdbW9IYc/ERKvHP+n0s1s9PgBLiysAAJCQAACAhAQAACQkAAAgIQEAAAkJAABISAAAQEICAAASEgAAkJAAAICEBAAAJCQAACAhAQAACQkAAEhIAABAQgIAABISAACQkAAAgIQEAAAkJAAAICEBAAAJCQAASEgAAEBCAgAAEhIAAJCQAACAhAQAACQkAAAgIQEAAAkJAABISAAAQEICAAASEgAAkJAAAICEBAAAJCQAACAhAQAACQkAAEhIAABAQgIAABISAACQkAAAgIQEAAAkJAAAICEBAAAJCQAASEgAAEBCAgAAEhIAAJCQAACAhAQAACQkAAAgIQEAAAkJAABISAAAQEICAAASEgAAkJAAAICEBAAAJCQAACAhAQAACQkAAEhIAABAQgIAABISAACQkAAAgIQEAAAkJAAAICEBAAAJCQAASEgAAEBCAgAAEhIAAJCQAACAhAQAACQkAAAgIQEAAAkJAABISAAAQEICAAASEgAAkJAAAICEBAAAJCQAACAhAQAACQkAAEhIAABAQgIAABISAACQkAAAgIQEAAAkJAAAICEBAAAJCQAASEgAAEBCAgAAEhIAAJCQAACAhAQAACQkAAAgIQEAAAkJAABISAAAQEICAAAS6rQ9gMFo+v0o1eB775VbPzzwY8Iz2T1xV9sToH2luAKQRb/Xa3sCAEtEqaq+AEii35trewIAS0RVqp4ASGJu5nDbEwBYIkpVTwuAJA5PTbY9AYAloqo7DwuAJA4/LgAA+KGq7twrAJKYfvRA2xMAWCqq8nkBkMTkwf3RNP22ZwDQtlKizA3/hQBIoun14vFDB9ueAUDLOt2R/VtvvnafAEjk0J6H254AQMvqoaHPRrgVcCoHdj3oxwAAiZUo0Y36nRECIJXe7Ew89sietmcA0JLu8OhDt930ke9GCIB09u64r+0JALSkHh199xO/FgDJTB06EFMH97U9A4AB6w6P7tv60Q9/7Il/FgAJ7br/uxHRtD0DgIEp0R0ZuerJHxEACU0d3BcHdz3U9gwABmRodNX3Pv2x62948scEQFIP37c9enOzbc8AYJGVUjVVZ/gNT/+4AEhqbuZwPLj9n8KPAgBWshLDq9f+yWdu/PDdT/+MAEjs0Ud2x74Hf9D2DAAWyfCq1f/4mRuvv/LHfU4AJPfwfXfHY/v2tj0DgAXWGRnbM1I9+4IjfV4AJNf0+7HjO1+PqUPeLRBgpeh0hydXn7D6Z/7njeNTR/oaAUA0vV48cMfXYvpRbxYEsNx1usOTY6Mn/ItP/fmf73qmrxMARETE3OxMfP9bX43H9rlVMMBy1R0e3dd91rNf8Hc3XPe9n/S1AoAf6ffmYsedX49Hdk6Evx0AsJyUGB5b87Wxoedu2vpn7zuqG710FnsSy0vT78fD994VkwceidPOeknUnW7bkwB4BqVUzfCade/9zA0feed8vs8VAH6sR/fuiu99dVvse+iBcDUAYCkq0R1ddX9nzbPOme+Tf4QrADyD3uxsPHTPHXHw4Z1x0hkvjFXrNrQ9CYCI6AyN7h8aHbny6bf3nddjLOQgVqapg/tj4ltfjbG16+PE554Zq5+1MUpx8QhgkEop0R0afagzMvzHx/PE/wQBwFGbOrg/dtzx9eh0h+KEk58dJ5x4coytXS8GABZJKSXq7sj+7tDw5+qo/vC2mz7y3YV6bAHAvM3NzsS+nROxb+dEVFUdo2vXx9iatTE0tiqGxlZHZ2g46roTVV1HqcQBwDMppUREaaq6nitVPV3VnYequnNfKfW26HU/vvXma/ctxnEFAMel3+/F5P69Mbl/adxOePvtt5e2Nyw3my+9NNWrPPdMTLQ9YaCcExyJP54BQEICAAASEgAAkJAAAICEBAAAJCQAACAhAQAACQkAAEhIAABAQgIAABISAACQkAAAgIQEAAAkJAAAICEBAAAJCQAASEgAAEBCAgAAEhIAAJCQAACAhAQAACQkAAAgIQEAAAkJAABISAAAQEICAAASEgAAkJAAAICEBAAAJCQAACAhAQAACQkAAEio0/aAlaZUJdaePhobf2ZtrDtjLEY2DEVntIr7d54ddRVRer2Y2TMZu7/yQPzf//1A9Hv9ticDkJAAWCB1t4pNmzfEpgs2xNDqH/evtYlePyJKHdVJJ8Qpb3hxnPZrL47H790b22/+VsxOzgx6MgCJCYAFcPK5a+MFF54Sw+u68/q+Xj9i6MwT46Xv+6V45MsTce8t2xdpIQA8ldcAHIdSSpz52pPixb/5nHk/+T9Zrymx7pVnxEuveGVUHf9JAFh8nm2OUSkRL/7N58QZrzspSikL8pjVKWvjZe++QAQAsOg80xyjM//lyXHyuWsX/HH7YyPxs5e9fMEfFwCeTAAcg5PPXRun/9LGRXv8+rT18fwtL1q0xwcAATBPdbeK5194yqIfZ8P5p0d39dCiHweAnATAPG169YYYOY4X/B2tXr/Ei/7tzy76cQDISQDMQ6lKbHr1hoEdb/R5J0btBYEALALPLvOw7oyxI9zkZ3H0mhKnbt40sOMBkIcAmIcTz1kz8GOe9PPPGfgxAVj5BMA8rD1jbODH7G5YPfBjArDyCYB5GN3QwqvyvQYAgEXg2WUeOqP1wI/ZaxbmLoMA8GQCAAASEgDzMPd4b+DHrEsz8GMCsPIJgHmYfmR28Aed6w/+mACseAJgHg7cPznwY87ufXTgxwRg5RMA87DnzsE/Ge+6fefAjwnAyicA5uHgxFTMPDa41wHUpYmHviwAAFh4AmAemn4TO76wd2DHm7p3T/S9BgCARSAA5umBL+6N6f0zi36cukTc/RffXvTjAJCTAJin/lwT3/vbXdE0i/vX8x750v0xO7n4oQFATgLgGOz+p4Pxg79fvB8FzD24P+7973cv2uMDgAA4Rvfftit2ffPggj9uNTUd3772qwv+uADwZALgGDVNxHf+y874/qd3L9iPA/oPH4yvvWubF/4BsOg6bQ9Yzpqmifu37o7HHp6OF/zaqTGyrntMj1OXH/7M32X/HLZs+eu6d+Z3X1mq/oVVU85rSpwZEesj4th+A8Ez2Hj66a3cT7xEiaqu+lHVU53u8N1V3f3kCfs33nTLLeNe3LRElM2XXupm8wug6pTYdP6GeO4vnBhDa/55V937g3/+p/q6NDF17964++PfjNnH5wYxc8XbfvvtS/btE7dcds1ojEz9ThPN70XExrb3ZLV74q62J6RV13W/O7L606UZffPWm6/d1/ae7ATAAisl4oQzxmLji9fEujNWxeiJQ9EZq+P7O5uoShOl14uZvZOx5/ad8eCXHnC5f4Et1QC46Kp3X1Kack1EnNb2luwEQPuqutMbHlvzZ1tvvP7ytrdkJgAGZM/ERNsTUlh6AdCUi696zx9FE++KiCW2LScBsFSUGB5b85XZTaeev2183CXQFngRICyS8fHx6uIr3/NX0cQfhSd/eJomDk8d+vnOD3bed8H4uNejtUAAwCK543D13oi4pO0dsJTNTE8+t/vgQ19oe0dGAgAWwUVXvfuSEuWKtnfAcnD4sUdf9Zq3vO39be/IRgDAAtty2TWj0ZQPtL0Dlo8mZh5/9LIL3vrWE9tekokAgAXWDE/+bonY1PYOWE76vbm626/+su0dmQgAWEBbtvx1HSUua3sHLEcz05Ov+7m33uCGWAMiAGAhPf/uV4Wb/MAxaXpz1Ybqzn/f9o4sBAAsoKYpF7a9AZazZubwv2l7QxYCABZSifPangDLWa83c1bbG7IQALCwzmx7ACxnvV5vVdsbshAAsLDWtj0AlrOm3/O8NCBVRHhrRlYE99oFOHpVRBxsewQsiKpaCm+t6HyC41CqeimcxylU0TT3tT0CFkLd6TzW9obShPMJjkOnrls/j7OoopR/aHsELISq293e9oYmwvkEx6HqDLV+HmdRlab527ZHwEKoS/lE2xuiOJ/geNTdTvvncRLVSb3e/4mI3W0PgeNRqqr/jdnZm1vfce9Zzic4RqXu9KdPOan18ziL6pZbbumViA+2PQSOR3ds7NbYtm2u7R233HJJL6I4n+AYDI+M3bptfLz18ziLKiKiDA9fF6XsaHsMHIuq0+nNVdVvtb3jCauH566LCOcTzENVd3qlGfuttndkUkVEbPvkJ6ebfv8/RkTT8h6Yt5GRkQ98Z+vWfW3veMInx8enS4TzCY5aieHREz6w9eZrl8x5nEH9xC923HnnXc8955yhUsr5bQ5aqaYOHGh7woo0Mjb2pW987nP/uu0dT3fXl79w19nn/8JQhPNpqZk8sKftCTzNyNgJX/rMxz+65M7jle4pt1z80llnvTNK+W9tjYH56I6M7Phmr/eLbe84knOG++9sIpxP8AyGhlftmNl06pI9j1ey+in/tG1b84M77vibn3rJSyIiXh3urrpgXAFYWENjY1/5dr9/7lJ44d+RbNu2rdn+5c//zdmbvxjhfFoyXAFYKkoMj53wlbmfOu1cL/xrxxH/h3T+pZdeVCKujYhNA9yzYu2ZmGh7wopQ1fXcyOjoB7/+2c9e0faW+bjoivdcFKW5tjifWrd74q62J6RXd7pzQyNrPrj1po8sq/N4pamP9Ikdd965/YyXveyj/V7vUIl4SUSsHuCuFccVgONTqqo/PDZ2a71u3Su+edttf9f2nvna/uXPb3/5L7/6o7P96lA4n1rlCkB7St3pj4ytuXXNujWvuPX6Dy2783ilObpLkuPj1QX33HNev5QLo2nOi4jnRcT6iBhaxG0riisA81BKlFL6daczWXc620un84lvHj788aV8uX8+xsfHq+883jmvqfoXRlPOi+J8GiRXAAajlBJR1f267kx2OkPby1D3E4dPPvHjLvcDAAAAAAAAAAAAAAAAAAAAAAAAAAAAAAAAAAAAAAAAAAAAAAAAAAAAAAAAAAAAAAAAAAAAAAAAAAAAAAAAAAAAAAAAAAAAAAAAAAAAAAAAAAAAAAAAAAAAAAAAAAAAAAAAAAAAAAAAAAAAAAAAAAAAAAAAAAAAAAAAJPf/AMjjfiCQyWdzAAAAAElFTkSuQmCC;" vertex="1" parent="1">
          <mxGeometry x="1169" y="280" width="80" height="80" as="geometry" />
        </mxCell>
        <mxCell id="WfNUCXWtIGb2go1Pgv4c-4" value="&lt;b&gt;React Website&lt;br&gt;(Customer Facing)&lt;br&gt;&lt;/b&gt;" style="text;html=1;align=center;verticalAlign=middle;resizable=0;points=[];autosize=1;strokeColor=none;fillColor=none;" vertex="1" parent="1">
          <mxGeometry x="1249" y="300" width="130" height="40" as="geometry" />
        </mxCell>
        <mxCell id="WfNUCXWtIGb2go1Pgv4c-5" value="&lt;b&gt;&amp;nbsp;30 Rest&lt;br&gt;APIs&lt;/b&gt;" style="text;html=1;align=center;verticalAlign=middle;resizable=0;points=[];autosize=1;strokeColor=none;fillColor=none;" vertex="1" parent="1">
          <mxGeometry x="890" y="252.5" width="70" height="40" as="geometry" />
        </mxCell>
        <mxCell id="WfNUCXWtIGb2go1Pgv4c-15" style="edgeStyle=orthogonalEdgeStyle;rounded=1;orthogonalLoop=1;jettySize=auto;html=1;entryX=0.5;entryY=1;entryDx=0;entryDy=0;startArrow=classic;startFill=1;" edge="1" parent="1" source="WfNUCXWtIGb2go1Pgv4c-7" target="WfNUCXWtIGb2go1Pgv4c-1">
          <mxGeometry relative="1" as="geometry" />
        </mxCell>
        <mxCell id="WfNUCXWtIGb2go1Pgv4c-18" style="edgeStyle=orthogonalEdgeStyle;rounded=0;orthogonalLoop=1;jettySize=auto;html=1;startArrow=classic;startFill=1;" edge="1" parent="1" source="WfNUCXWtIGb2go1Pgv4c-7" target="zT6JNl-cOwjEbxEy0BAq-13">
          <mxGeometry relative="1" as="geometry" />
        </mxCell>
        <mxCell id="WfNUCXWtIGb2go1Pgv4c-7" value="" style="sketch=0;points=[[0,0,0],[0.25,0,0],[0.5,0,0],[0.75,0,0],[1,0,0],[0,1,0],[0.25,1,0],[0.5,1,0],[0.75,1,0],[1,1,0],[0,0.25,0],[0,0.5,0],[0,0.75,0],[1,0.25,0],[1,0.5,0],[1,0.75,0]];outlineConnect=0;fontColor=#232F3E;gradientColor=#F78E04;gradientDirection=north;fillColor=#D05C17;strokeColor=#ffffff;dashed=0;verticalLabelPosition=bottom;verticalAlign=top;align=center;html=1;fontSize=12;fontStyle=0;aspect=fixed;shape=mxgraph.aws4.resourceIcon;resIcon=mxgraph.aws4.elastic_load_balancing;" vertex="1" parent="1">
          <mxGeometry x="960" y="480" width="80" height="80" as="geometry" />
        </mxCell>
        <mxCell id="WfNUCXWtIGb2go1Pgv4c-8" value="&lt;b&gt;CCAvenue Payment&lt;br&gt;Gateway (International + India)&lt;br&gt;&lt;/b&gt;" style="text;html=1;align=center;verticalAlign=middle;resizable=0;points=[];autosize=1;strokeColor=none;fillColor=none;" vertex="1" parent="1">
          <mxGeometry x="900" y="560" width="200" height="40" as="geometry" />
        </mxCell>
        <mxCell id="WfNUCXWtIGb2go1Pgv4c-11" value="" style="shape=image;verticalLabelPosition=bottom;labelBackgroundColor=default;verticalAlign=top;aspect=fixed;imageAspect=0;image=data:image/png,iVBORw0KGgoAAAANSUhEUgAAAgAAAAIACAYAAAD0eNT6AAAABHNCSVQICAgIfAhkiAAAAAlwSFlzAAALEwAACxMBAJqcGAAAABl0RVh0U29mdHdhcmUAd3d3Lmlua3NjYXBlLm9yZ5vuPBoAABZsSURBVHic7d17kKV1fefx7+95zunbzDAzDsNFHAN4CSIxrLHKiDKSS3nJbiQRhircmMpedKs0VkKWbICKpiNqbaJCgooCEk3tH5sNm6qNG1hHjc6qWbTiLYIMKGA7DAtzYW7QTU93n/PsHy4WEAenZ7rP093f1+uvoS/n+RTMw3nP02eeEwEAAAAAAAAAAAAAAAAAAAAAAAAAAAAAAAAAAAAAAAAAAAAAAAAAAAAAAAAAAAAAAAAAAAAAAAAAAAAAAAAAAAAAAAAAAAAAAAAAAAAAAAAAAAAAAAAAAAAAAAAAAAAAAAAAAAAAAAAAAAAAAAAAAAAAAAAAAAAAAADQgtL2AJa3N1/+/lVTQ1OvKv3qpVHipyPirIiyMaJZHxGrImKo5YnwFLsn7mp7AjxFKSWilKaq6rko5XBdD+0qVXVfXVXbpkvvpm033rh3UY67GA/KynbpVe89eSb6byoRb4wmXh4R3bY3wdESACwnpZSoh0YOdrpDn+9V3T/8+xs+tGC/gQUAR+2Nf/CezXXpX96U8vqI6LS9B46FAGC5KlGiMzL6cLczevWnb/rw9cf/ePATXHzF1RdEiXdHxPltb4HjJQBYCbpDIwfqkVXv+swNH/7QsT6GAOCItvz++Cn9Tv2nJeI3wu8VVggBwErSHRnbOTK86vW3fuy6O+f7vdViDGL523Ll1Rc3nXp7iXhzePIHWJJmp6ee89ijj3z7tW95+3+e7/f6HztP8fp3XDe8as2ha6Jp3tb2FlgMrgCwMpUYHlv1rdnh7vnbrr/+saP5DlcA+JEt4+OrV60++ClP/gDLTROHpx47t5qc3vGvLrvstKP5DgFARERsufJ9G5vD9baIeE3bWwA4NnMzj6+femT/Pb/ylre/8Cd9rQAg3vCf/mRNE73/FRE/1/YWAI7P3OzhVdMzk9/4lbf9/inP9HUCILnXv+O64aF65n+EJ3+AFWNu5vCqw5N773zN5ZevOtLXCIDkVq05dE1E/GLbOwBYWLMz0xviwKEvHunz9SDHsLRsufLqiyPi/W3vgEGaPLCn7QkwMHOzs6ee9YrNo/d94x8/9/TP+WuASb3xqveeWjX9uyJiXdtbYJD8NUCyqaq6qVevP+fp7yPgRwBJlab/gfDkD7Di9fu9UmamP/X0jwuAhC6+4uoLSsSb2t4BwGDMTE8+77Vvffvbn/wxAZDRD9/YB4A0mpg9/PjVT/6IAEjmjX/wns3hXf0A0pmbeXz9697y2z+606sASKYu/cvb3gBAO2Znp975xK8FQCK/fvn4SU0pr2t7BwDtmDs8fcrr/8M7zo4QAKl0up3fiIhu2zsAaEcTTfT6s38cIQBSaUrz621vAKBdc7MzvxzhRkBp/Or4+Njw4Xp/RAy1vQXa5EZApFeq6K5fd6IrAEkMzZTzw5M/AE0/OrPl3wmAJEpTe7c/ACIioml6FwiALJrmp9ueAMDS0O/NPV8AJFEiXtj2BgCWhn5v7hQBkERT4tS2NwCwNDT93ogAyGNN2wMAWBr6Tb8WAHmsbnsAAEtD0+9XnaP5wi1bttS7ut1XNk1zYWma86KUMyNifbir3FHbMzHR9oRW/MNrf7vtCfAUc9871PYEeIoXff6KwR+0aeIZA+AVW7aMdjud39kV8XvRNBtLRERx7yAAWO6OGACbL730koi4JiJOG9wcAGAQftxrAMrmN71pPCL+Kjz5A8CK9NQrAOPj1eZ77vmv0TSXtLQHABiAp1wB2HzPPe+NCE/+ALDC/SgA/v/P/Ft4KSIAMGhVxA9f7R8RH2h5CwAwIFVERKfT+d2I2NTyFgBgQKotW7bUJeKytocAAINTPdzpvCoiNrY9BAAYnKoq5cK2RwAAg1U1TXNe2yMAgMGqIuLMtkcAAINVRcTatkcAAINVRcRQ2yMAgMH6cW8GBACscAIAABISAACQkAAAgIQEAAAkJAAAICEBAAAJCQAASEgAAEBCAgAAEhIAAJCQAACAhAQAACQkAAAgIQEAAAkJAABISAAAQEICAAASEgAAkJAAAICEBAAAJCQAACAhAQAACQkAAEhIAABAQgIAABISAACQkAAAgIQEAAAkJAAAICEBAAAJCQAASEgAAEBCAgAAEhIAAJCQAACAhAQAACQkAAAgIQEAAAkJAABISAAAQEICAAASEgAAkJAAAICEBAAAJCQAACAhAQAACQkAAEhIAABAQgIAABISAACQkAAAgIQEAAAkJAAAICEBAAAJCQAASEgAAEBCAgAAEhIAAJBQ56TTz257AwAwYK4AAEBCAgAAEhIAAJCQAACAhAQAACQkAAAgIQEAAAkJAABISAAAQEICAAASEgAAkJAAAICEBAAAJCQAACAhAQAACQkAAEhIAABAQgIAABISAACQkAAAgIQEAAAkJAAAICEBAAAJCQAASEgAAEBCAgAAEhIAAJCQAACAhAQAACQkAAAgIQEAAAkJAABISAAAQEICAAASEgAAkJAAAICEBAAAJCQAACAhAQAACQkAAEhIAABAQgIAABISAACQkAAAgIQEAAAkJAAAICEBAAAJCQAASEgAAEBCAgAAEhIAAJCQAACAhAQAACQkAAAgIQEAAAkJAABISAAAQEICAAASEgAAkFBn98RdbW9IYc/ERKvHP+n0s1s9PgBLiysAAJCQAACAhAQAACQkAAAgIQEAAAkJAABISAAAQEICAAASEgAAkJAAAICEBAAAJCQAACAhAQAACQkAAEhIAABAQgIAABISAACQkAAAgIQEAAAkJAAAICEBAAAJCQAASEgAAEBCAgAAEhIAAJCQAACAhAQAACQkAAAgIQEAAAkJAABISAAAQEICAAASEgAAkJAAAICEBAAAJCQAACAhAQAACQkAAEhIAABAQgIAABISAACQkAAAgIQEAAAkJAAAICEBAAAJCQAASEgAAEBCAgAAEhIAAJCQAACAhAQAACQkAAAgIQEAAAkJAABISAAAQEICAAASEgAAkJAAAICEBAAAJCQAACAhAQAACQkAAEhIAABAQgIAABISAACQkAAAgIQEAAAkJAAAICEBAAAJCQAASEgAAEBCAgAAEhIAAJCQAACAhAQAACQkAAAgIQEAAAkJAABISAAAQEICAAASEgAAkJAAAICEBAAAJCQAACAhAQAACQkAAEhIAABAQgIAABISAACQkAAAgIQEAAAkJAAAICEBAAAJCQAASEgAAEBCAgAAEhIAAJCQAACAhAQAACQkAAAgIQEAAAkJAABISAAAQEICAAAS6rQ9gMFo+v0o1eB775VbPzzwY8Iz2T1xV9sToH2luAKQRb/Xa3sCAEtEqaq+AEii35trewIAS0RVqp4ASGJu5nDbEwBYIkpVTwuAJA5PTbY9AYAloqo7DwuAJA4/LgAA+KGq7twrAJKYfvRA2xMAWCqq8nkBkMTkwf3RNP22ZwDQtlKizA3/hQBIoun14vFDB9ueAUDLOt2R/VtvvnafAEjk0J6H254AQMvqoaHPRrgVcCoHdj3oxwAAiZUo0Y36nRECIJXe7Ew89sietmcA0JLu8OhDt930ke9GCIB09u64r+0JALSkHh199xO/FgDJTB06EFMH97U9A4AB6w6P7tv60Q9/7Il/FgAJ7br/uxHRtD0DgIEp0R0ZuerJHxEACU0d3BcHdz3U9gwABmRodNX3Pv2x62948scEQFIP37c9enOzbc8AYJGVUjVVZ/gNT/+4AEhqbuZwPLj9n8KPAgBWshLDq9f+yWdu/PDdT/+MAEjs0Ud2x74Hf9D2DAAWyfCq1f/4mRuvv/LHfU4AJPfwfXfHY/v2tj0DgAXWGRnbM1I9+4IjfV4AJNf0+7HjO1+PqUPeLRBgpeh0hydXn7D6Z/7njeNTR/oaAUA0vV48cMfXYvpRbxYEsNx1usOTY6Mn/ItP/fmf73qmrxMARETE3OxMfP9bX43H9rlVMMBy1R0e3dd91rNf8Hc3XPe9n/S1AoAf6ffmYsedX49Hdk6Evx0AsJyUGB5b87Wxoedu2vpn7zuqG710FnsSy0vT78fD994VkwceidPOeknUnW7bkwB4BqVUzfCade/9zA0feed8vs8VAH6sR/fuiu99dVvse+iBcDUAYCkq0R1ddX9nzbPOme+Tf4QrADyD3uxsPHTPHXHw4Z1x0hkvjFXrNrQ9CYCI6AyN7h8aHbny6bf3nddjLOQgVqapg/tj4ltfjbG16+PE554Zq5+1MUpx8QhgkEop0R0afagzMvzHx/PE/wQBwFGbOrg/dtzx9eh0h+KEk58dJ5x4coytXS8GABZJKSXq7sj+7tDw5+qo/vC2mz7y3YV6bAHAvM3NzsS+nROxb+dEVFUdo2vXx9iatTE0tiqGxlZHZ2g46roTVV1HqcQBwDMppUREaaq6nitVPV3VnYequnNfKfW26HU/vvXma/ctxnEFAMel3+/F5P69Mbl/adxOePvtt5e2Nyw3my+9NNWrPPdMTLQ9YaCcExyJP54BQEICAAASEgAAkJAAAICEBAAAJCQAACAhAQAACQkAAEhIAABAQgIAABISAACQkAAAgIQEAAAkJAAAICEBAAAJCQAASEgAAEBCAgAAEhIAAJCQAACAhAQAACQkAAAgIQEAAAkJAABISAAAQEICAAASEgAAkJAAAICEBAAAJCQAACAhAQAACQkAAEio0/aAlaZUJdaePhobf2ZtrDtjLEY2DEVntIr7d54ddRVRer2Y2TMZu7/yQPzf//1A9Hv9ticDkJAAWCB1t4pNmzfEpgs2xNDqH/evtYlePyJKHdVJJ8Qpb3hxnPZrL47H790b22/+VsxOzgx6MgCJCYAFcPK5a+MFF54Sw+u68/q+Xj9i6MwT46Xv+6V45MsTce8t2xdpIQA8ldcAHIdSSpz52pPixb/5nHk/+T9Zrymx7pVnxEuveGVUHf9JAFh8nm2OUSkRL/7N58QZrzspSikL8pjVKWvjZe++QAQAsOg80xyjM//lyXHyuWsX/HH7YyPxs5e9fMEfFwCeTAAcg5PPXRun/9LGRXv8+rT18fwtL1q0xwcAATBPdbeK5194yqIfZ8P5p0d39dCiHweAnATAPG169YYYOY4X/B2tXr/Ei/7tzy76cQDISQDMQ6lKbHr1hoEdb/R5J0btBYEALALPLvOw7oyxI9zkZ3H0mhKnbt40sOMBkIcAmIcTz1kz8GOe9PPPGfgxAVj5BMA8rD1jbODH7G5YPfBjArDyCYB5GN3QwqvyvQYAgEXg2WUeOqP1wI/ZaxbmLoMA8GQCAAASEgDzMPd4b+DHrEsz8GMCsPIJgHmYfmR28Aed6w/+mACseAJgHg7cPznwY87ufXTgxwRg5RMA87DnzsE/Ge+6fefAjwnAyicA5uHgxFTMPDa41wHUpYmHviwAAFh4AmAemn4TO76wd2DHm7p3T/S9BgCARSAA5umBL+6N6f0zi36cukTc/RffXvTjAJCTAJin/lwT3/vbXdE0i/vX8x750v0xO7n4oQFATgLgGOz+p4Pxg79fvB8FzD24P+7973cv2uMDgAA4Rvfftit2ffPggj9uNTUd3772qwv+uADwZALgGDVNxHf+y874/qd3L9iPA/oPH4yvvWubF/4BsOg6bQ9Yzpqmifu37o7HHp6OF/zaqTGyrntMj1OXH/7M32X/HLZs+eu6d+Z3X1mq/oVVU85rSpwZEesj4th+A8Ez2Hj66a3cT7xEiaqu+lHVU53u8N1V3f3kCfs33nTLLeNe3LRElM2XXupm8wug6pTYdP6GeO4vnBhDa/55V937g3/+p/q6NDF17964++PfjNnH5wYxc8XbfvvtS/btE7dcds1ojEz9ThPN70XExrb3ZLV74q62J6RV13W/O7L606UZffPWm6/d1/ae7ATAAisl4oQzxmLji9fEujNWxeiJQ9EZq+P7O5uoShOl14uZvZOx5/ad8eCXHnC5f4Et1QC46Kp3X1Kack1EnNb2luwEQPuqutMbHlvzZ1tvvP7ytrdkJgAGZM/ERNsTUlh6AdCUi696zx9FE++KiCW2LScBsFSUGB5b85XZTaeev2183CXQFngRICyS8fHx6uIr3/NX0cQfhSd/eJomDk8d+vnOD3bed8H4uNejtUAAwCK543D13oi4pO0dsJTNTE8+t/vgQ19oe0dGAgAWwUVXvfuSEuWKtnfAcnD4sUdf9Zq3vO39be/IRgDAAtty2TWj0ZQPtL0Dlo8mZh5/9LIL3vrWE9tekokAgAXWDE/+bonY1PYOWE76vbm626/+su0dmQgAWEBbtvx1HSUua3sHLEcz05Ov+7m33uCGWAMiAGAhPf/uV4Wb/MAxaXpz1Ybqzn/f9o4sBAAsoKYpF7a9AZazZubwv2l7QxYCABZSifPangDLWa83c1bbG7IQALCwzmx7ACxnvV5vVdsbshAAsLDWtj0AlrOm3/O8NCBVRHhrRlYE99oFOHpVRBxsewQsiKpaCm+t6HyC41CqeimcxylU0TT3tT0CFkLd6TzW9obShPMJjkOnrls/j7OoopR/aHsELISq293e9oYmwvkEx6HqDLV+HmdRlab527ZHwEKoS/lE2xuiOJ/geNTdTvvncRLVSb3e/4mI3W0PgeNRqqr/jdnZm1vfce9Zzic4RqXu9KdPOan18ziL6pZbbumViA+2PQSOR3ds7NbYtm2u7R233HJJL6I4n+AYDI+M3bptfLz18ziLKiKiDA9fF6XsaHsMHIuq0+nNVdVvtb3jCauH566LCOcTzENVd3qlGfuttndkUkVEbPvkJ6ebfv8/RkTT8h6Yt5GRkQ98Z+vWfW3veMInx8enS4TzCY5aieHREz6w9eZrl8x5nEH9xC923HnnXc8955yhUsr5bQ5aqaYOHGh7woo0Mjb2pW987nP/uu0dT3fXl79w19nn/8JQhPNpqZk8sKftCTzNyNgJX/rMxz+65M7jle4pt1z80llnvTNK+W9tjYH56I6M7Phmr/eLbe84knOG++9sIpxP8AyGhlftmNl06pI9j1ey+in/tG1b84M77vibn3rJSyIiXh3urrpgXAFYWENjY1/5dr9/7lJ44d+RbNu2rdn+5c//zdmbvxjhfFoyXAFYKkoMj53wlbmfOu1cL/xrxxH/h3T+pZdeVCKujYhNA9yzYu2ZmGh7wopQ1fXcyOjoB7/+2c9e0faW+bjoivdcFKW5tjifWrd74q62J6RXd7pzQyNrPrj1po8sq/N4pamP9Ikdd965/YyXveyj/V7vUIl4SUSsHuCuFccVgONTqqo/PDZ2a71u3Su+edttf9f2nvna/uXPb3/5L7/6o7P96lA4n1rlCkB7St3pj4ytuXXNujWvuPX6Dy2783ilObpLkuPj1QX33HNev5QLo2nOi4jnRcT6iBhaxG0riisA81BKlFL6daczWXc620un84lvHj788aV8uX8+xsfHq+883jmvqfoXRlPOi+J8GiRXAAajlBJR1f267kx2OkPby1D3E4dPPvHjLvcDAAAAAAAAAAAAAAAAAAAAAAAAAAAAAAAAAAAAAAAAAAAAAAAAAAAAAAAAAAAAAAAAAAAAAAAAAAAAAAAAAAAAAAAAAAAAAAAAAAAAAAAAAAAAAAAAAAAAAAAAAAAAAAAAAAAAAAAAAAAAAAAAAAAAAAAAAAAAAAAAJPf/AMjjfiCQyWdzAAAAAElFTkSuQmCC;" vertex="1" parent="1">
          <mxGeometry x="1169" y="162.5" width="80" height="80" as="geometry" />
        </mxCell>
        <mxCell id="WfNUCXWtIGb2go1Pgv4c-12" value="&lt;b&gt;React Website&lt;br&gt;(Admin Facing)&lt;br&gt;&lt;/b&gt;" style="text;html=1;align=center;verticalAlign=middle;resizable=0;points=[];autosize=1;strokeColor=none;fillColor=none;" vertex="1" parent="1">
          <mxGeometry x="1250" y="182.5" width="110" height="40" as="geometry" />
        </mxCell>
        <mxCell id="WfNUCXWtIGb2go1Pgv4c-16" value="&lt;b style=&quot;font-size: 16px;&quot;&gt;Wynter&#39;s Dreams Architecture&lt;/b&gt;" style="text;html=1;align=center;verticalAlign=middle;resizable=0;points=[];autosize=1;strokeColor=none;fillColor=none;fontSize=16;" vertex="1" parent="1">
          <mxGeometry x="760" y="70" width="250" height="30" as="geometry" />
        </mxCell>
        <mxCell id="WfNUCXWtIGb2go1Pgv4c-19" value="&lt;b&gt;Rest API&lt;br&gt;Custom Encryption&lt;br&gt;(SSL/TLS)&lt;br&gt;&lt;/b&gt;" style="text;html=1;align=center;verticalAlign=middle;resizable=0;points=[];autosize=1;strokeColor=none;fillColor=none;" vertex="1" parent="1">
          <mxGeometry x="1000" y="415" width="130" height="60" as="geometry" />
        </mxCell>
      </root>
    </mxGraphModel>
  </diagram>
  <diagram id="gA-WN4eCJIZv07DppYHk" name="Monitoring">
    <mxGraphModel dx="1026" dy="772" grid="1" gridSize="10" guides="1" tooltips="1" connect="1" arrows="1" fold="1" page="1" pageScale="1" pageWidth="1169" pageHeight="827" math="0" shadow="0">
      <root>
        <mxCell id="0" />
        <mxCell id="1" parent="0" />
        <mxCell id="skF2FPfWr--MLwThlA7R-1" value="&lt;b&gt;Scaled Backend Services&lt;br&gt;(ECS Maintained)&lt;br&gt;&lt;/b&gt;" style="text;html=1;align=center;verticalAlign=middle;resizable=0;points=[];autosize=1;strokeColor=none;fillColor=none;" parent="1" vertex="1">
          <mxGeometry x="695" y="360" width="170" height="40" as="geometry" />
        </mxCell>
        <mxCell id="skF2FPfWr--MLwThlA7R-2" value="" style="sketch=0;points=[[0,0,0],[0.25,0,0],[0.5,0,0],[0.75,0,0],[1,0,0],[0,1,0],[0.25,1,0],[0.5,1,0],[0.75,1,0],[1,1,0],[0,0.25,0],[0,0.5,0],[0,0.75,0],[1,0.25,0],[1,0.5,0],[1,0.75,0]];outlineConnect=0;fontColor=#232F3E;gradientColor=#F78E04;gradientDirection=north;fillColor=#D05C17;strokeColor=#ffffff;dashed=0;verticalLabelPosition=bottom;verticalAlign=top;align=center;html=1;fontSize=12;fontStyle=0;aspect=fixed;shape=mxgraph.aws4.resourceIcon;resIcon=mxgraph.aws4.ec2;" parent="1" vertex="1">
          <mxGeometry x="680" y="160" width="80" height="80" as="geometry" />
        </mxCell>
        <mxCell id="skF2FPfWr--MLwThlA7R-3" value="" style="sketch=0;points=[[0,0,0],[0.25,0,0],[0.5,0,0],[0.75,0,0],[1,0,0],[0,1,0],[0.25,1,0],[0.5,1,0],[0.75,1,0],[1,1,0],[0,0.25,0],[0,0.5,0],[0,0.75,0],[1,0.25,0],[1,0.5,0],[1,0.75,0]];outlineConnect=0;fontColor=#232F3E;gradientColor=#F78E04;gradientDirection=north;fillColor=#D05C17;strokeColor=#ffffff;dashed=0;verticalLabelPosition=bottom;verticalAlign=top;align=center;html=1;fontSize=12;fontStyle=0;aspect=fixed;shape=mxgraph.aws4.resourceIcon;resIcon=mxgraph.aws4.ec2;" parent="1" vertex="1">
          <mxGeometry x="800" y="160" width="80" height="80" as="geometry" />
        </mxCell>
        <mxCell id="skF2FPfWr--MLwThlA7R-4" value="" style="sketch=0;points=[[0,0,0],[0.25,0,0],[0.5,0,0],[0.75,0,0],[1,0,0],[0,1,0],[0.25,1,0],[0.5,1,0],[0.75,1,0],[1,1,0],[0,0.25,0],[0,0.5,0],[0,0.75,0],[1,0.25,0],[1,0.5,0],[1,0.75,0]];outlineConnect=0;fontColor=#232F3E;gradientColor=#F78E04;gradientDirection=north;fillColor=#D05C17;strokeColor=#ffffff;dashed=0;verticalLabelPosition=bottom;verticalAlign=top;align=center;html=1;fontSize=12;fontStyle=0;aspect=fixed;shape=mxgraph.aws4.resourceIcon;resIcon=mxgraph.aws4.ec2;" parent="1" vertex="1">
          <mxGeometry x="740" y="270" width="80" height="80" as="geometry" />
        </mxCell>
        <mxCell id="uTbM3qjU9i_jP_0yTd8p-2" style="edgeStyle=orthogonalEdgeStyle;rounded=0;orthogonalLoop=1;jettySize=auto;html=1;entryX=0;entryY=0.5;entryDx=0;entryDy=0;entryPerimeter=0;" parent="1" source="skF2FPfWr--MLwThlA7R-5" target="uTbM3qjU9i_jP_0yTd8p-1" edge="1">
          <mxGeometry relative="1" as="geometry" />
        </mxCell>
        <mxCell id="skF2FPfWr--MLwThlA7R-5" value="" style="rounded=1;whiteSpace=wrap;html=1;fillColor=none;dashed=1;" parent="1" vertex="1">
          <mxGeometry x="670" y="145" width="220" height="215" as="geometry" />
        </mxCell>
        <mxCell id="uTbM3qjU9i_jP_0yTd8p-1" value="" style="sketch=0;points=[[0,0,0],[0.25,0,0],[0.5,0,0],[0.75,0,0],[1,0,0],[0,1,0],[0.25,1,0],[0.5,1,0],[0.75,1,0],[1,1,0],[0,0.25,0],[0,0.5,0],[0,0.75,0],[1,0.25,0],[1,0.5,0],[1,0.75,0]];points=[[0,0,0],[0.25,0,0],[0.5,0,0],[0.75,0,0],[1,0,0],[0,1,0],[0.25,1,0],[0.5,1,0],[0.75,1,0],[1,1,0],[0,0.25,0],[0,0.5,0],[0,0.75,0],[1,0.25,0],[1,0.5,0],[1,0.75,0]];outlineConnect=0;fontColor=#232F3E;gradientColor=#F34482;gradientDirection=north;fillColor=#BC1356;strokeColor=#ffffff;dashed=0;verticalLabelPosition=bottom;verticalAlign=top;align=center;html=1;fontSize=12;fontStyle=0;aspect=fixed;shape=mxgraph.aws4.resourceIcon;resIcon=mxgraph.aws4.cloudwatch_2;" parent="1" vertex="1">
          <mxGeometry x="1040" y="212.5" width="80" height="80" as="geometry" />
        </mxCell>
        <mxCell id="uTbM3qjU9i_jP_0yTd8p-3" value="&lt;b&gt;Sink Logs&lt;br&gt;&lt;/b&gt;" style="text;html=1;align=center;verticalAlign=middle;resizable=0;points=[];autosize=1;strokeColor=none;fillColor=none;" parent="1" vertex="1">
          <mxGeometry x="920" y="250" width="80" height="30" as="geometry" />
        </mxCell>
        <mxCell id="uTbM3qjU9i_jP_0yTd8p-4" value="&lt;b&gt;Cloudwatch&lt;/b&gt;" style="text;html=1;align=center;verticalAlign=middle;resizable=0;points=[];autosize=1;strokeColor=none;fillColor=none;" parent="1" vertex="1">
          <mxGeometry x="1035" y="292.5" width="90" height="30" as="geometry" />
        </mxCell>
      </root>
    </mxGraphModel>
  </diagram>
  <diagram id="pdgoArj-a_mY6Gdi-ths" name="Security">
    <mxGraphModel dx="1026" dy="772" grid="1" gridSize="10" guides="1" tooltips="1" connect="1" arrows="1" fold="1" page="1" pageScale="1" pageWidth="1169" pageHeight="827" math="0" shadow="0">
      <root>
        <mxCell id="0" />
        <mxCell id="1" parent="0" />
        <mxCell id="5UW7mkgfbjp0cbNhQ1EO-1" style="edgeStyle=orthogonalEdgeStyle;rounded=0;orthogonalLoop=1;jettySize=auto;html=1;startArrow=classic;startFill=1;" parent="1" source="5UW7mkgfbjp0cbNhQ1EO-2" edge="1">
          <mxGeometry relative="1" as="geometry">
            <mxPoint x="900" y="417.5" as="targetPoint" />
          </mxGeometry>
        </mxCell>
        <mxCell id="5UW7mkgfbjp0cbNhQ1EO-2" value="" style="sketch=0;points=[[0,0,0],[0.25,0,0],[0.5,0,0],[0.75,0,0],[1,0,0],[0,1,0],[0.25,1,0],[0.5,1,0],[0.75,1,0],[1,1,0],[0,0.25,0],[0,0.5,0],[0,0.75,0],[1,0.25,0],[1,0.5,0],[1,0.75,0]];outlineConnect=0;fontColor=#232F3E;gradientColor=#F78E04;gradientDirection=north;fillColor=#D05C17;strokeColor=#ffffff;dashed=0;verticalLabelPosition=bottom;verticalAlign=top;align=center;html=1;fontSize=12;fontStyle=0;aspect=fixed;shape=mxgraph.aws4.resourceIcon;resIcon=mxgraph.aws4.elastic_load_balancing;" parent="1" vertex="1">
          <mxGeometry x="635" y="377.5" width="80" height="80" as="geometry" />
        </mxCell>
        <mxCell id="5UW7mkgfbjp0cbNhQ1EO-3" value="&lt;b&gt;Scaled Backend Services&lt;br&gt;(ECS Maintained)&lt;br&gt;&lt;/b&gt;" style="text;html=1;align=center;verticalAlign=middle;resizable=0;points=[];autosize=1;strokeColor=none;fillColor=none;" parent="1" vertex="1">
          <mxGeometry x="305" y="525" width="170" height="40" as="geometry" />
        </mxCell>
        <mxCell id="5UW7mkgfbjp0cbNhQ1EO-4" value="&lt;b&gt;Load Balancer&lt;br&gt;(SSL/TLS Termination)&lt;br&gt;&lt;/b&gt;" style="text;html=1;align=center;verticalAlign=middle;resizable=0;points=[];autosize=1;strokeColor=none;fillColor=none;" parent="1" vertex="1">
          <mxGeometry x="600" y="457.5" width="150" height="40" as="geometry" />
        </mxCell>
        <mxCell id="5UW7mkgfbjp0cbNhQ1EO-5" value="" style="sketch=0;points=[[0,0,0],[0.25,0,0],[0.5,0,0],[0.75,0,0],[1,0,0],[0,1,0],[0.25,1,0],[0.5,1,0],[0.75,1,0],[1,1,0],[0,0.25,0],[0,0.5,0],[0,0.75,0],[1,0.25,0],[1,0.5,0],[1,0.75,0]];outlineConnect=0;fontColor=#232F3E;gradientColor=#F78E04;gradientDirection=north;fillColor=#D05C17;strokeColor=#ffffff;dashed=0;verticalLabelPosition=bottom;verticalAlign=top;align=center;html=1;fontSize=12;fontStyle=0;aspect=fixed;shape=mxgraph.aws4.resourceIcon;resIcon=mxgraph.aws4.ec2;" parent="1" vertex="1">
          <mxGeometry x="290" y="325" width="80" height="80" as="geometry" />
        </mxCell>
        <mxCell id="5UW7mkgfbjp0cbNhQ1EO-6" value="" style="sketch=0;points=[[0,0,0],[0.25,0,0],[0.5,0,0],[0.75,0,0],[1,0,0],[0,1,0],[0.25,1,0],[0.5,1,0],[0.75,1,0],[1,1,0],[0,0.25,0],[0,0.5,0],[0,0.75,0],[1,0.25,0],[1,0.5,0],[1,0.75,0]];outlineConnect=0;fontColor=#232F3E;gradientColor=#F78E04;gradientDirection=north;fillColor=#D05C17;strokeColor=#ffffff;dashed=0;verticalLabelPosition=bottom;verticalAlign=top;align=center;html=1;fontSize=12;fontStyle=0;aspect=fixed;shape=mxgraph.aws4.resourceIcon;resIcon=mxgraph.aws4.ec2;" parent="1" vertex="1">
          <mxGeometry x="410" y="325" width="80" height="80" as="geometry" />
        </mxCell>
        <mxCell id="5UW7mkgfbjp0cbNhQ1EO-7" value="" style="sketch=0;points=[[0,0,0],[0.25,0,0],[0.5,0,0],[0.75,0,0],[1,0,0],[0,1,0],[0.25,1,0],[0.5,1,0],[0.75,1,0],[1,1,0],[0,0.25,0],[0,0.5,0],[0,0.75,0],[1,0.25,0],[1,0.5,0],[1,0.75,0]];outlineConnect=0;fontColor=#232F3E;gradientColor=#F78E04;gradientDirection=north;fillColor=#D05C17;strokeColor=#ffffff;dashed=0;verticalLabelPosition=bottom;verticalAlign=top;align=center;html=1;fontSize=12;fontStyle=0;aspect=fixed;shape=mxgraph.aws4.resourceIcon;resIcon=mxgraph.aws4.ec2;" parent="1" vertex="1">
          <mxGeometry x="350" y="435" width="80" height="80" as="geometry" />
        </mxCell>
        <mxCell id="5UW7mkgfbjp0cbNhQ1EO-8" style="edgeStyle=orthogonalEdgeStyle;rounded=0;orthogonalLoop=1;jettySize=auto;html=1;startArrow=classic;startFill=1;" parent="1" source="5UW7mkgfbjp0cbNhQ1EO-9" target="5UW7mkgfbjp0cbNhQ1EO-2" edge="1">
          <mxGeometry relative="1" as="geometry" />
        </mxCell>
        <mxCell id="5UW7mkgfbjp0cbNhQ1EO-9" value="" style="rounded=1;whiteSpace=wrap;html=1;fillColor=none;dashed=1;" parent="1" vertex="1">
          <mxGeometry x="280" y="310" width="220" height="215" as="geometry" />
        </mxCell>
        <mxCell id="5UW7mkgfbjp0cbNhQ1EO-10" value="&lt;b&gt;To Frontend&lt;/b&gt;" style="text;html=1;align=center;verticalAlign=middle;resizable=0;points=[];autosize=1;strokeColor=none;fillColor=none;" parent="1" vertex="1">
          <mxGeometry x="770" y="384" width="90" height="30" as="geometry" />
        </mxCell>
        <mxCell id="5UW7mkgfbjp0cbNhQ1EO-11" value="&lt;b&gt;Encrypted&lt;br&gt;Traffic (SSL/TLS)&lt;/b&gt;" style="text;html=1;align=center;verticalAlign=middle;resizable=0;points=[];autosize=1;strokeColor=none;fillColor=none;" parent="1" vertex="1">
          <mxGeometry x="760" y="423" width="120" height="40" as="geometry" />
        </mxCell>
        <mxCell id="5UW7mkgfbjp0cbNhQ1EO-12" value="&lt;b&gt;Unencrypted&lt;br&gt;Traffic&lt;br&gt;&lt;/b&gt;" style="text;html=1;align=center;verticalAlign=middle;resizable=0;points=[];autosize=1;strokeColor=none;fillColor=none;" parent="1" vertex="1">
          <mxGeometry x="520" y="423" width="100" height="40" as="geometry" />
        </mxCell>
        <mxCell id="9d2JflZZABzOya9xq0hM-1" value="" style="rounded=1;whiteSpace=wrap;html=1;fillColor=none;dashed=1;" vertex="1" parent="1">
          <mxGeometry x="270" y="300" width="480" height="270" as="geometry" />
        </mxCell>
        <mxCell id="9d2JflZZABzOya9xq0hM-2" value="&lt;b&gt;Virtual Private Cloud&lt;br&gt;&lt;/b&gt;" style="text;html=1;align=center;verticalAlign=middle;resizable=0;points=[];autosize=1;strokeColor=none;fillColor=none;" vertex="1" parent="1">
          <mxGeometry x="595" y="570" width="140" height="30" as="geometry" />
        </mxCell>
      </root>
    </mxGraphModel>
  </diagram>
  <diagram id="wXNVYouthIXA1VSHYy6_" name="Scalability">
    <mxGraphModel dx="1026" dy="772" grid="1" gridSize="10" guides="1" tooltips="1" connect="1" arrows="1" fold="1" page="1" pageScale="1" pageWidth="1169" pageHeight="827" math="0" shadow="0">
      <root>
        <mxCell id="0" />
        <mxCell id="1" parent="0" />
        <mxCell id="XYL7IrrEh7okryuU29ds-1" value="&lt;b&gt;Scaled Backend Services&lt;br&gt;(ECS Maintained)&lt;br&gt;&lt;/b&gt;" style="text;html=1;align=center;verticalAlign=middle;resizable=0;points=[];autosize=1;strokeColor=none;fillColor=none;" vertex="1" parent="1">
          <mxGeometry x="345" y="370" width="170" height="40" as="geometry" />
        </mxCell>
        <mxCell id="XYL7IrrEh7okryuU29ds-2" value="" style="sketch=0;points=[[0,0,0],[0.25,0,0],[0.5,0,0],[0.75,0,0],[1,0,0],[0,1,0],[0.25,1,0],[0.5,1,0],[0.75,1,0],[1,1,0],[0,0.25,0],[0,0.5,0],[0,0.75,0],[1,0.25,0],[1,0.5,0],[1,0.75,0]];outlineConnect=0;fontColor=#232F3E;gradientColor=#F78E04;gradientDirection=north;fillColor=#D05C17;strokeColor=#ffffff;dashed=0;verticalLabelPosition=bottom;verticalAlign=top;align=center;html=1;fontSize=12;fontStyle=0;aspect=fixed;shape=mxgraph.aws4.resourceIcon;resIcon=mxgraph.aws4.ec2;" vertex="1" parent="1">
          <mxGeometry x="330" y="170" width="80" height="80" as="geometry" />
        </mxCell>
        <mxCell id="XYL7IrrEh7okryuU29ds-3" value="" style="sketch=0;points=[[0,0,0],[0.25,0,0],[0.5,0,0],[0.75,0,0],[1,0,0],[0,1,0],[0.25,1,0],[0.5,1,0],[0.75,1,0],[1,1,0],[0,0.25,0],[0,0.5,0],[0,0.75,0],[1,0.25,0],[1,0.5,0],[1,0.75,0]];outlineConnect=0;fontColor=#232F3E;gradientColor=#F78E04;gradientDirection=north;fillColor=#D05C17;strokeColor=#ffffff;dashed=0;verticalLabelPosition=bottom;verticalAlign=top;align=center;html=1;fontSize=12;fontStyle=0;aspect=fixed;shape=mxgraph.aws4.resourceIcon;resIcon=mxgraph.aws4.ec2;" vertex="1" parent="1">
          <mxGeometry x="450" y="170" width="80" height="80" as="geometry" />
        </mxCell>
        <mxCell id="XYL7IrrEh7okryuU29ds-4" value="" style="sketch=0;points=[[0,0,0],[0.25,0,0],[0.5,0,0],[0.75,0,0],[1,0,0],[0,1,0],[0.25,1,0],[0.5,1,0],[0.75,1,0],[1,1,0],[0,0.25,0],[0,0.5,0],[0,0.75,0],[1,0.25,0],[1,0.5,0],[1,0.75,0]];outlineConnect=0;fontColor=#232F3E;gradientColor=#F78E04;gradientDirection=north;fillColor=#D05C17;strokeColor=#ffffff;dashed=0;verticalLabelPosition=bottom;verticalAlign=top;align=center;html=1;fontSize=12;fontStyle=0;aspect=fixed;shape=mxgraph.aws4.resourceIcon;resIcon=mxgraph.aws4.ec2;" vertex="1" parent="1">
          <mxGeometry x="390" y="280" width="80" height="80" as="geometry" />
        </mxCell>
        <mxCell id="XYL7IrrEh7okryuU29ds-15" style="edgeStyle=orthogonalEdgeStyle;rounded=0;orthogonalLoop=1;jettySize=auto;html=1;" edge="1" parent="1">
          <mxGeometry relative="1" as="geometry">
            <mxPoint x="560" y="258" as="sourcePoint" />
            <mxPoint x="700" y="258" as="targetPoint" />
          </mxGeometry>
        </mxCell>
        <mxCell id="XYL7IrrEh7okryuU29ds-5" value="" style="rounded=1;whiteSpace=wrap;html=1;fillColor=none;dashed=1;" vertex="1" parent="1">
          <mxGeometry x="320" y="145" width="220" height="225" as="geometry" />
        </mxCell>
        <mxCell id="XYL7IrrEh7okryuU29ds-6" value="&lt;b&gt;Resource Utilisation: 85%&lt;br&gt;&lt;/b&gt;" style="text;html=1;align=center;verticalAlign=middle;resizable=0;points=[];autosize=1;strokeColor=none;fillColor=none;" vertex="1" parent="1">
          <mxGeometry x="345" y="115" width="170" height="30" as="geometry" />
        </mxCell>
        <mxCell id="XYL7IrrEh7okryuU29ds-7" value="&lt;b&gt;Scaled Backend Services&lt;br&gt;(ECS Maintained)&lt;br&gt;&lt;/b&gt;" style="text;html=1;align=center;verticalAlign=middle;resizable=0;points=[];autosize=1;strokeColor=none;fillColor=none;" vertex="1" parent="1">
          <mxGeometry x="745" y="370" width="170" height="40" as="geometry" />
        </mxCell>
        <mxCell id="XYL7IrrEh7okryuU29ds-8" value="" style="sketch=0;points=[[0,0,0],[0.25,0,0],[0.5,0,0],[0.75,0,0],[1,0,0],[0,1,0],[0.25,1,0],[0.5,1,0],[0.75,1,0],[1,1,0],[0,0.25,0],[0,0.5,0],[0,0.75,0],[1,0.25,0],[1,0.5,0],[1,0.75,0]];outlineConnect=0;fontColor=#232F3E;gradientColor=#F78E04;gradientDirection=north;fillColor=#D05C17;strokeColor=#ffffff;dashed=0;verticalLabelPosition=bottom;verticalAlign=top;align=center;html=1;fontSize=12;fontStyle=0;aspect=fixed;shape=mxgraph.aws4.resourceIcon;resIcon=mxgraph.aws4.ec2;" vertex="1" parent="1">
          <mxGeometry x="730" y="160" width="80" height="80" as="geometry" />
        </mxCell>
        <mxCell id="XYL7IrrEh7okryuU29ds-9" value="" style="sketch=0;points=[[0,0,0],[0.25,0,0],[0.5,0,0],[0.75,0,0],[1,0,0],[0,1,0],[0.25,1,0],[0.5,1,0],[0.75,1,0],[1,1,0],[0,0.25,0],[0,0.5,0],[0,0.75,0],[1,0.25,0],[1,0.5,0],[1,0.75,0]];outlineConnect=0;fontColor=#232F3E;gradientColor=#F78E04;gradientDirection=north;fillColor=#D05C17;strokeColor=#ffffff;dashed=0;verticalLabelPosition=bottom;verticalAlign=top;align=center;html=1;fontSize=12;fontStyle=0;aspect=fixed;shape=mxgraph.aws4.resourceIcon;resIcon=mxgraph.aws4.ec2;" vertex="1" parent="1">
          <mxGeometry x="850" y="160" width="80" height="80" as="geometry" />
        </mxCell>
        <mxCell id="XYL7IrrEh7okryuU29ds-10" value="" style="sketch=0;points=[[0,0,0],[0.25,0,0],[0.5,0,0],[0.75,0,0],[1,0,0],[0,1,0],[0.25,1,0],[0.5,1,0],[0.75,1,0],[1,1,0],[0,0.25,0],[0,0.5,0],[0,0.75,0],[1,0.25,0],[1,0.5,0],[1,0.75,0]];outlineConnect=0;fontColor=#232F3E;gradientColor=#F78E04;gradientDirection=north;fillColor=#D05C17;strokeColor=#ffffff;dashed=0;verticalLabelPosition=bottom;verticalAlign=top;align=center;html=1;fontSize=12;fontStyle=0;aspect=fixed;shape=mxgraph.aws4.resourceIcon;resIcon=mxgraph.aws4.ec2;" vertex="1" parent="1">
          <mxGeometry x="730" y="270" width="80" height="80" as="geometry" />
        </mxCell>
        <mxCell id="XYL7IrrEh7okryuU29ds-11" value="" style="rounded=1;whiteSpace=wrap;html=1;fillColor=none;dashed=1;" vertex="1" parent="1">
          <mxGeometry x="720" y="145" width="220" height="225" as="geometry" />
        </mxCell>
        <mxCell id="XYL7IrrEh7okryuU29ds-12" value="&lt;b&gt;Resource Utilisation: 64%&lt;br&gt;&lt;/b&gt;" style="text;html=1;align=center;verticalAlign=middle;resizable=0;points=[];autosize=1;strokeColor=none;fillColor=none;" vertex="1" parent="1">
          <mxGeometry x="745" y="115" width="170" height="30" as="geometry" />
        </mxCell>
        <mxCell id="XYL7IrrEh7okryuU29ds-13" value="" style="sketch=0;points=[[0,0,0],[0.25,0,0],[0.5,0,0],[0.75,0,0],[1,0,0],[0,1,0],[0.25,1,0],[0.5,1,0],[0.75,1,0],[1,1,0],[0,0.25,0],[0,0.5,0],[0,0.75,0],[1,0.25,0],[1,0.5,0],[1,0.75,0]];outlineConnect=0;fontColor=#232F3E;gradientColor=#F78E04;gradientDirection=north;fillColor=#D05C17;strokeColor=#ffffff;dashed=0;verticalLabelPosition=bottom;verticalAlign=top;align=center;html=1;fontSize=12;fontStyle=0;aspect=fixed;shape=mxgraph.aws4.resourceIcon;resIcon=mxgraph.aws4.ec2;" vertex="1" parent="1">
          <mxGeometry x="850" y="270" width="80" height="80" as="geometry" />
        </mxCell>
        <mxCell id="XYL7IrrEh7okryuU29ds-16" value="&lt;b&gt;Spawn Replica&lt;/b&gt;" style="text;html=1;align=center;verticalAlign=middle;resizable=0;points=[];autosize=1;strokeColor=none;fillColor=none;" vertex="1" parent="1">
          <mxGeometry x="580" y="230" width="110" height="30" as="geometry" />
        </mxCell>
      </root>
    </mxGraphModel>
  </diagram>
  <diagram id="otKEFDZ94qC704AUmG3p" name="Deployment">
    <mxGraphModel dx="708" dy="451" grid="1" gridSize="10" guides="1" tooltips="1" connect="1" arrows="1" fold="1" page="1" pageScale="1" pageWidth="1169" pageHeight="827" math="0" shadow="0">
      <root>
        <mxCell id="0" />
        <mxCell id="1" parent="0" />
        <mxCell id="LSNNPRCLhkv2z3igvXNf-4" value="Push Code" style="edgeStyle=orthogonalEdgeStyle;rounded=0;orthogonalLoop=1;jettySize=auto;html=1;" edge="1" parent="1" source="LSNNPRCLhkv2z3igvXNf-1" target="LSNNPRCLhkv2z3igvXNf-2">
          <mxGeometry relative="1" as="geometry" />
        </mxCell>
        <mxCell id="LSNNPRCLhkv2z3igvXNf-1" value="" style="shape=image;verticalLabelPosition=bottom;labelBackgroundColor=default;verticalAlign=top;aspect=fixed;imageAspect=0;image=data:image/png,iVBORw0KGgoAAAANSUhEUgAAAgAAAAIACAYAAAD0eNT6AAAABHNCSVQICAgIfAhkiAAAAAlwSFlzAAALEwAACxMBAJqcGAAAABl0RVh0U29mdHdhcmUAd3d3Lmlua3NjYXBlLm9yZ5vuPBoAABZsSURBVHic7d17kKV1fefx7+95zunbzDAzDsNFHAN4CSIxrLHKiDKSS3nJbiQRhircmMpedKs0VkKWbICKpiNqbaJCgooCEk3tH5sNm6qNG1hHjc6qWbTiLYIMKGA7DAtzYW7QTU93n/PsHy4WEAenZ7rP093f1+uvoS/n+RTMw3nP02eeEwEAAAAAAAAAAAAAAAAAAAAAAAAAAAAAAAAAAAAAAAAAAAAAAAAAAAAAAAAAAAAAAAAAAAAAAAAAAAAAAAAAAAAAAAAAAAAAAAAAAAAAAAAAAAAAAAAAAAAAAAAAAAAAAAAAAAAAAAAAAAAAAAAAAAAAAAAAAAAAAADQgtL2AJa3N1/+/lVTQ1OvKv3qpVHipyPirIiyMaJZHxGrImKo5YnwFLsn7mp7AjxFKSWilKaq6rko5XBdD+0qVXVfXVXbpkvvpm033rh3UY67GA/KynbpVe89eSb6byoRb4wmXh4R3bY3wdESACwnpZSoh0YOdrpDn+9V3T/8+xs+tGC/gQUAR+2Nf/CezXXpX96U8vqI6LS9B46FAGC5KlGiMzL6cLczevWnb/rw9cf/ePATXHzF1RdEiXdHxPltb4HjJQBYCbpDIwfqkVXv+swNH/7QsT6GAOCItvz++Cn9Tv2nJeI3wu8VVggBwErSHRnbOTK86vW3fuy6O+f7vdViDGL523Ll1Rc3nXp7iXhzePIHWJJmp6ee89ijj3z7tW95+3+e7/f6HztP8fp3XDe8as2ha6Jp3tb2FlgMrgCwMpUYHlv1rdnh7vnbrr/+saP5DlcA+JEt4+OrV60++ClP/gDLTROHpx47t5qc3vGvLrvstKP5DgFARERsufJ9G5vD9baIeE3bWwA4NnMzj6+femT/Pb/ylre/8Cd9rQAg3vCf/mRNE73/FRE/1/YWAI7P3OzhVdMzk9/4lbf9/inP9HUCILnXv+O64aF65n+EJ3+AFWNu5vCqw5N773zN5ZevOtLXCIDkVq05dE1E/GLbOwBYWLMz0xviwKEvHunz9SDHsLRsufLqiyPi/W3vgEGaPLCn7QkwMHOzs6ee9YrNo/d94x8/9/TP+WuASb3xqveeWjX9uyJiXdtbYJD8NUCyqaq6qVevP+fp7yPgRwBJlab/gfDkD7Di9fu9UmamP/X0jwuAhC6+4uoLSsSb2t4BwGDMTE8+77Vvffvbn/wxAZDRD9/YB4A0mpg9/PjVT/6IAEjmjX/wns3hXf0A0pmbeXz9697y2z+606sASKYu/cvb3gBAO2Znp975xK8FQCK/fvn4SU0pr2t7BwDtmDs8fcrr/8M7zo4QAKl0up3fiIhu2zsAaEcTTfT6s38cIQBSaUrz621vAKBdc7MzvxzhRkBp/Or4+Njw4Xp/RAy1vQXa5EZApFeq6K5fd6IrAEkMzZTzw5M/AE0/OrPl3wmAJEpTe7c/ACIioml6FwiALJrmp9ueAMDS0O/NPV8AJFEiXtj2BgCWhn5v7hQBkERT4tS2NwCwNDT93ogAyGNN2wMAWBr6Tb8WAHmsbnsAAEtD0+9XnaP5wi1bttS7ut1XNk1zYWma86KUMyNifbir3FHbMzHR9oRW/MNrf7vtCfAUc9871PYEeIoXff6KwR+0aeIZA+AVW7aMdjud39kV8XvRNBtLRERx7yAAWO6OGACbL730koi4JiJOG9wcAGAQftxrAMrmN71pPCL+Kjz5A8CK9NQrAOPj1eZ77vmv0TSXtLQHABiAp1wB2HzPPe+NCE/+ALDC/SgA/v/P/Ft4KSIAMGhVxA9f7R8RH2h5CwAwIFVERKfT+d2I2NTyFgBgQKotW7bUJeKytocAAINTPdzpvCoiNrY9BAAYnKoq5cK2RwAAg1U1TXNe2yMAgMGqIuLMtkcAAINVRcTatkcAAINVRcRQ2yMAgMH6cW8GBACscAIAABISAACQkAAAgIQEAAAkJAAAICEBAAAJCQAASEgAAEBCAgAAEhIAAJCQAACAhAQAACQkAAAgIQEAAAkJAABISAAAQEICAAASEgAAkJAAAICEBAAAJCQAACAhAQAACQkAAEhIAABAQgIAABISAACQkAAAgIQEAAAkJAAAICEBAAAJCQAASEgAAEBCAgAAEhIAAJCQAACAhAQAACQkAAAgIQEAAAkJAABISAAAQEICAAASEgAAkJAAAICEBAAAJCQAACAhAQAACQkAAEhIAABAQgIAABISAACQkAAAgIQEAAAkJAAAICEBAAAJCQAASEgAAEBCAgAAEhIAAJBQ56TTz257AwAwYK4AAEBCAgAAEhIAAJCQAACAhAQAACQkAAAgIQEAAAkJAABISAAAQEICAAASEgAAkJAAAICEBAAAJCQAACAhAQAACQkAAEhIAABAQgIAABISAACQkAAAgIQEAAAkJAAAICEBAAAJCQAASEgAAEBCAgAAEhIAAJCQAACAhAQAACQkAAAgIQEAAAkJAABISAAAQEICAAASEgAAkJAAAICEBAAAJCQAACAhAQAACQkAAEhIAABAQgIAABISAACQkAAAgIQEAAAkJAAAICEBAAAJCQAASEgAAEBCAgAAEhIAAJCQAACAhAQAACQkAAAgIQEAAAkJAABISAAAQEICAAASEgAAkFBn98RdbW9IYc/ERKvHP+n0s1s9PgBLiysAAJCQAACAhAQAACQkAAAgIQEAAAkJAABISAAAQEICAAASEgAAkJAAAICEBAAAJCQAACAhAQAACQkAAEhIAABAQgIAABISAACQkAAAgIQEAAAkJAAAICEBAAAJCQAASEgAAEBCAgAAEhIAAJCQAACAhAQAACQkAAAgIQEAAAkJAABISAAAQEICAAASEgAAkJAAAICEBAAAJCQAACAhAQAACQkAAEhIAABAQgIAABISAACQkAAAgIQEAAAkJAAAICEBAAAJCQAASEgAAEBCAgAAEhIAAJCQAACAhAQAACQkAAAgIQEAAAkJAABISAAAQEICAAASEgAAkJAAAICEBAAAJCQAACAhAQAACQkAAEhIAABAQgIAABISAACQkAAAgIQEAAAkJAAAICEBAAAJCQAASEgAAEBCAgAAEhIAAJCQAACAhAQAACQkAAAgIQEAAAkJAABISAAAQEICAAASEgAAkJAAAICEBAAAJCQAACAhAQAACQkAAEhIAABAQgIAABISAACQkAAAgIQEAAAkJAAAICEBAAAJCQAASEgAAEBCAgAAEhIAAJCQAACAhAQAACQkAAAgIQEAAAkJAABISAAAQEICAAAS6rQ9gMFo+v0o1eB775VbPzzwY8Iz2T1xV9sToH2luAKQRb/Xa3sCAEtEqaq+AEii35trewIAS0RVqp4ASGJu5nDbEwBYIkpVTwuAJA5PTbY9AYAloqo7DwuAJA4/LgAA+KGq7twrAJKYfvRA2xMAWCqq8nkBkMTkwf3RNP22ZwDQtlKizA3/hQBIoun14vFDB9ueAUDLOt2R/VtvvnafAEjk0J6H254AQMvqoaHPRrgVcCoHdj3oxwAAiZUo0Y36nRECIJXe7Ew89sietmcA0JLu8OhDt930ke9GCIB09u64r+0JALSkHh199xO/FgDJTB06EFMH97U9A4AB6w6P7tv60Q9/7Il/FgAJ7br/uxHRtD0DgIEp0R0ZuerJHxEACU0d3BcHdz3U9gwABmRodNX3Pv2x62948scEQFIP37c9enOzbc8AYJGVUjVVZ/gNT/+4AEhqbuZwPLj9n8KPAgBWshLDq9f+yWdu/PDdT/+MAEjs0Ud2x74Hf9D2DAAWyfCq1f/4mRuvv/LHfU4AJPfwfXfHY/v2tj0DgAXWGRnbM1I9+4IjfV4AJNf0+7HjO1+PqUPeLRBgpeh0hydXn7D6Z/7njeNTR/oaAUA0vV48cMfXYvpRbxYEsNx1usOTY6Mn/ItP/fmf73qmrxMARETE3OxMfP9bX43H9rlVMMBy1R0e3dd91rNf8Hc3XPe9n/S1AoAf6ffmYsedX49Hdk6Evx0AsJyUGB5b87Wxoedu2vpn7zuqG710FnsSy0vT78fD994VkwceidPOeknUnW7bkwB4BqVUzfCade/9zA0feed8vs8VAH6sR/fuiu99dVvse+iBcDUAYCkq0R1ddX9nzbPOme+Tf4QrADyD3uxsPHTPHXHw4Z1x0hkvjFXrNrQ9CYCI6AyN7h8aHbny6bf3nddjLOQgVqapg/tj4ltfjbG16+PE554Zq5+1MUpx8QhgkEop0R0afagzMvzHx/PE/wQBwFGbOrg/dtzx9eh0h+KEk58dJ5x4coytXS8GABZJKSXq7sj+7tDw5+qo/vC2mz7y3YV6bAHAvM3NzsS+nROxb+dEVFUdo2vXx9iatTE0tiqGxlZHZ2g46roTVV1HqcQBwDMppUREaaq6nitVPV3VnYequnNfKfW26HU/vvXma/ctxnEFAMel3+/F5P69Mbl/adxOePvtt5e2Nyw3my+9NNWrPPdMTLQ9YaCcExyJP54BQEICAAASEgAAkJAAAICEBAAAJCQAACAhAQAACQkAAEhIAABAQgIAABISAACQkAAAgIQEAAAkJAAAICEBAAAJCQAASEgAAEBCAgAAEhIAAJCQAACAhAQAACQkAAAgIQEAAAkJAABISAAAQEICAAASEgAAkJAAAICEBAAAJCQAACAhAQAACQkAAEio0/aAlaZUJdaePhobf2ZtrDtjLEY2DEVntIr7d54ddRVRer2Y2TMZu7/yQPzf//1A9Hv9ticDkJAAWCB1t4pNmzfEpgs2xNDqH/evtYlePyJKHdVJJ8Qpb3hxnPZrL47H790b22/+VsxOzgx6MgCJCYAFcPK5a+MFF54Sw+u68/q+Xj9i6MwT46Xv+6V45MsTce8t2xdpIQA8ldcAHIdSSpz52pPixb/5nHk/+T9Zrymx7pVnxEuveGVUHf9JAFh8nm2OUSkRL/7N58QZrzspSikL8pjVKWvjZe++QAQAsOg80xyjM//lyXHyuWsX/HH7YyPxs5e9fMEfFwCeTAAcg5PPXRun/9LGRXv8+rT18fwtL1q0xwcAATBPdbeK5194yqIfZ8P5p0d39dCiHweAnATAPG169YYYOY4X/B2tXr/Ei/7tzy76cQDISQDMQ6lKbHr1hoEdb/R5J0btBYEALALPLvOw7oyxI9zkZ3H0mhKnbt40sOMBkIcAmIcTz1kz8GOe9PPPGfgxAVj5BMA8rD1jbODH7G5YPfBjArDyCYB5GN3QwqvyvQYAgEXg2WUeOqP1wI/ZaxbmLoMA8GQCAAASEgDzMPd4b+DHrEsz8GMCsPIJgHmYfmR28Aed6w/+mACseAJgHg7cPznwY87ufXTgxwRg5RMA87DnzsE/Ge+6fefAjwnAyicA5uHgxFTMPDa41wHUpYmHviwAAFh4AmAemn4TO76wd2DHm7p3T/S9BgCARSAA5umBL+6N6f0zi36cukTc/RffXvTjAJCTAJin/lwT3/vbXdE0i/vX8x750v0xO7n4oQFATgLgGOz+p4Pxg79fvB8FzD24P+7973cv2uMDgAA4Rvfftit2ffPggj9uNTUd3772qwv+uADwZALgGDVNxHf+y874/qd3L9iPA/oPH4yvvWubF/4BsOg6bQ9Yzpqmifu37o7HHp6OF/zaqTGyrntMj1OXH/7M32X/HLZs+eu6d+Z3X1mq/oVVU85rSpwZEesj4th+A8Ez2Hj66a3cT7xEiaqu+lHVU53u8N1V3f3kCfs33nTLLeNe3LRElM2XXupm8wug6pTYdP6GeO4vnBhDa/55V937g3/+p/q6NDF17964++PfjNnH5wYxc8XbfvvtS/btE7dcds1ojEz9ThPN70XExrb3ZLV74q62J6RV13W/O7L606UZffPWm6/d1/ae7ATAAisl4oQzxmLji9fEujNWxeiJQ9EZq+P7O5uoShOl14uZvZOx5/ad8eCXHnC5f4Et1QC46Kp3X1Kack1EnNb2luwEQPuqutMbHlvzZ1tvvP7ytrdkJgAGZM/ERNsTUlh6AdCUi696zx9FE++KiCW2LScBsFSUGB5b85XZTaeev2183CXQFngRICyS8fHx6uIr3/NX0cQfhSd/eJomDk8d+vnOD3bed8H4uNejtUAAwCK543D13oi4pO0dsJTNTE8+t/vgQ19oe0dGAgAWwUVXvfuSEuWKtnfAcnD4sUdf9Zq3vO39be/IRgDAAtty2TWj0ZQPtL0Dlo8mZh5/9LIL3vrWE9tekokAgAXWDE/+bonY1PYOWE76vbm626/+su0dmQgAWEBbtvx1HSUua3sHLEcz05Ov+7m33uCGWAMiAGAhPf/uV4Wb/MAxaXpz1Ybqzn/f9o4sBAAsoKYpF7a9AZazZubwv2l7QxYCABZSifPangDLWa83c1bbG7IQALCwzmx7ACxnvV5vVdsbshAAsLDWtj0AlrOm3/O8NCBVRHhrRlYE99oFOHpVRBxsewQsiKpaCm+t6HyC41CqeimcxylU0TT3tT0CFkLd6TzW9obShPMJjkOnrls/j7OoopR/aHsELISq293e9oYmwvkEx6HqDLV+HmdRlab527ZHwEKoS/lE2xuiOJ/geNTdTvvncRLVSb3e/4mI3W0PgeNRqqr/jdnZm1vfce9Zzic4RqXu9KdPOan18ziL6pZbbumViA+2PQSOR3ds7NbYtm2u7R233HJJL6I4n+AYDI+M3bptfLz18ziLKiKiDA9fF6XsaHsMHIuq0+nNVdVvtb3jCauH566LCOcTzENVd3qlGfuttndkUkVEbPvkJ6ebfv8/RkTT8h6Yt5GRkQ98Z+vWfW3veMInx8enS4TzCY5aieHREz6w9eZrl8x5nEH9xC923HnnXc8955yhUsr5bQ5aqaYOHGh7woo0Mjb2pW987nP/uu0dT3fXl79w19nn/8JQhPNpqZk8sKftCTzNyNgJX/rMxz+65M7jle4pt1z80llnvTNK+W9tjYH56I6M7Phmr/eLbe84knOG++9sIpxP8AyGhlftmNl06pI9j1ey+in/tG1b84M77vibn3rJSyIiXh3urrpgXAFYWENjY1/5dr9/7lJ44d+RbNu2rdn+5c//zdmbvxjhfFoyXAFYKkoMj53wlbmfOu1cL/xrxxH/h3T+pZdeVCKujYhNA9yzYu2ZmGh7wopQ1fXcyOjoB7/+2c9e0faW+bjoivdcFKW5tjifWrd74q62J6RXd7pzQyNrPrj1po8sq/N4pamP9Ikdd965/YyXveyj/V7vUIl4SUSsHuCuFccVgONTqqo/PDZ2a71u3Su+edttf9f2nvna/uXPb3/5L7/6o7P96lA4n1rlCkB7St3pj4ytuXXNujWvuPX6Dy2783ilObpLkuPj1QX33HNev5QLo2nOi4jnRcT6iBhaxG0riisA81BKlFL6daczWXc620un84lvHj788aV8uX8+xsfHq+883jmvqfoXRlPOi+J8GiRXAAajlBJR1f267kx2OkPby1D3E4dPPvHjLvcDAAAAAAAAAAAAAAAAAAAAAAAAAAAAAAAAAAAAAAAAAAAAAAAAAAAAAAAAAAAAAAAAAAAAAAAAAAAAAAAAAAAAAAAAAAAAAAAAAAAAAAAAAAAAAAAAAAAAAAAAAAAAAAAAAAAAAAAAAAAAAAAAAAAAAAAAAAAAAAAAJPf/AMjjfiCQyWdzAAAAAElFTkSuQmCC;" vertex="1" parent="1">
          <mxGeometry x="430" y="480" width="80" height="80" as="geometry" />
        </mxCell>
        <mxCell id="LSNNPRCLhkv2z3igvXNf-7" value="Push Docker&lt;br&gt;Image" style="edgeStyle=orthogonalEdgeStyle;rounded=0;orthogonalLoop=1;jettySize=auto;html=1;entryX=0;entryY=0.5;entryDx=0;entryDy=0;entryPerimeter=0;" edge="1" parent="1" source="LSNNPRCLhkv2z3igvXNf-2" target="LSNNPRCLhkv2z3igvXNf-3">
          <mxGeometry relative="1" as="geometry" />
        </mxCell>
        <mxCell id="LSNNPRCLhkv2z3igvXNf-2" value="" style="dashed=0;outlineConnect=0;html=1;align=center;labelPosition=center;verticalLabelPosition=bottom;verticalAlign=top;shape=mxgraph.weblogos.github" vertex="1" parent="1">
          <mxGeometry x="600" y="480" width="80" height="80" as="geometry" />
        </mxCell>
        <mxCell id="LSNNPRCLhkv2z3igvXNf-10" value="Update&lt;br&gt;Service" style="edgeStyle=orthogonalEdgeStyle;rounded=0;orthogonalLoop=1;jettySize=auto;html=1;entryX=0;entryY=0.5;entryDx=0;entryDy=0;entryPerimeter=0;" edge="1" parent="1" source="LSNNPRCLhkv2z3igvXNf-3" target="LSNNPRCLhkv2z3igvXNf-9">
          <mxGeometry relative="1" as="geometry" />
        </mxCell>
        <mxCell id="LSNNPRCLhkv2z3igvXNf-3" value="" style="sketch=0;points=[[0,0,0],[0.25,0,0],[0.5,0,0],[0.75,0,0],[1,0,0],[0,1,0],[0.25,1,0],[0.5,1,0],[0.75,1,0],[1,1,0],[0,0.25,0],[0,0.5,0],[0,0.75,0],[1,0.25,0],[1,0.5,0],[1,0.75,0]];outlineConnect=0;fontColor=#232F3E;gradientColor=#F78E04;gradientDirection=north;fillColor=#D05C17;strokeColor=#ffffff;dashed=0;verticalLabelPosition=bottom;verticalAlign=top;align=center;html=1;fontSize=12;fontStyle=0;aspect=fixed;shape=mxgraph.aws4.resourceIcon;resIcon=mxgraph.aws4.ecr;" vertex="1" parent="1">
          <mxGeometry x="770" y="480" width="80" height="80" as="geometry" />
        </mxCell>
        <mxCell id="LSNNPRCLhkv2z3igvXNf-5" value="&lt;b&gt;My Computer&lt;/b&gt;" style="text;html=1;align=center;verticalAlign=middle;resizable=0;points=[];autosize=1;strokeColor=none;fillColor=none;" vertex="1" parent="1">
          <mxGeometry x="430" y="560" width="100" height="30" as="geometry" />
        </mxCell>
        <mxCell id="LSNNPRCLhkv2z3igvXNf-6" value="&lt;b&gt;Merge, test, &lt;br&gt;build, push&lt;/b&gt;" style="text;html=1;align=center;verticalAlign=middle;resizable=0;points=[];autosize=1;strokeColor=none;fillColor=none;" vertex="1" parent="1">
          <mxGeometry x="595" y="560" width="90" height="40" as="geometry" />
        </mxCell>
        <mxCell id="LSNNPRCLhkv2z3igvXNf-8" value="&lt;b&gt;Store Docker&lt;br&gt;Images (ECR)&lt;br&gt;&lt;/b&gt;" style="text;html=1;align=center;verticalAlign=middle;resizable=0;points=[];autosize=1;strokeColor=none;fillColor=none;" vertex="1" parent="1">
          <mxGeometry x="760" y="560" width="100" height="40" as="geometry" />
        </mxCell>
        <mxCell id="LSNNPRCLhkv2z3igvXNf-9" value="" style="sketch=0;points=[[0,0,0],[0.25,0,0],[0.5,0,0],[0.75,0,0],[1,0,0],[0,1,0],[0.25,1,0],[0.5,1,0],[0.75,1,0],[1,1,0],[0,0.25,0],[0,0.5,0],[0,0.75,0],[1,0.25,0],[1,0.5,0],[1,0.75,0]];outlineConnect=0;fontColor=#232F3E;gradientColor=#F78E04;gradientDirection=north;fillColor=#D05C17;strokeColor=#ffffff;dashed=0;verticalLabelPosition=bottom;verticalAlign=top;align=center;html=1;fontSize=12;fontStyle=0;aspect=fixed;shape=mxgraph.aws4.resourceIcon;resIcon=mxgraph.aws4.ecs;" vertex="1" parent="1">
          <mxGeometry x="940" y="480" width="80" height="80" as="geometry" />
        </mxCell>
        <mxCell id="LSNNPRCLhkv2z3igvXNf-11" value="&lt;b&gt;Deployment&lt;br&gt;Container (ECS)&lt;br&gt;&lt;/b&gt;" style="text;html=1;align=center;verticalAlign=middle;resizable=0;points=[];autosize=1;strokeColor=none;fillColor=none;" vertex="1" parent="1">
          <mxGeometry x="920" y="560" width="120" height="40" as="geometry" />
        </mxCell>
      </root>
    </mxGraphModel>
  </diagram>
</mxfile>
